<svg width="80" height="80" viewBox="0 0 80 80" fill="none" xmlns="http://www.w3.org/2000/svg">
<path d="M39.8813 0.641251L2.8457 13.675L8.69758 62.1981L39.9207 79.3587L71.3045 61.9663L77.1544 13.4444L39.8813 0.641251Z" fill="#B3B3B3"/>
<path d="M73.4599 16.2488L39.7949 4.76813V75.2588L68.008 59.6444L73.4599 16.2488Z" fill="#A6120D"/>
<path d="M7.00049 16.4556L12.0167 59.8519L39.7942 75.2587V4.76687L7.00049 16.4556Z" fill="#DD1B16"/>
<path d="M49.0621 42.2937L39.7952 46.6275H30.0277L25.4359 58.1112L16.8965 58.27L39.7952 7.3275L49.0621 42.2937ZM48.1659 40.1119L39.8565 23.6613L33.0402 39.8288H39.7946L48.1659 40.1119Z" fill="#F2F2F2"/>
<path d="M39.7944 7.3275L39.8557 23.6613L47.5901 39.8412H39.8113L39.7944 46.6169L50.5501 46.6275L55.5763 58.2713L63.7476 58.4225L39.7944 7.3275Z" fill="#B3B3B3"/>
</svg>
