<svg width="80" height="80" viewBox="0 0 80 80" fill="none" xmlns="http://www.w3.org/2000/svg">
<path d="M11.7588 71.3269L5.4751 0.845001H74.5251L68.2351 71.3163L39.9582 79.1556L11.7588 71.3269Z" fill="#1572B6"/>
<path d="M40.0005 73.1637L62.8499 66.8288L68.2255 6.6075H40.0005V73.1637Z" fill="#33A9DC"/>
<path d="M40.0005 32.1431H51.4392L52.2292 23.2913H40.0005V14.6469H61.6767L61.4692 16.9663L59.3442 40.7875H40.0005V32.1431Z" fill="white"/>
<path d="M40.0521 54.5931L40.014 54.6044L30.3871 52.005L29.7715 45.1106H21.0952L22.3058 58.6837L40.0127 63.5981L40.0521 63.5869V54.5931Z" fill="#EBEBEB"/>
<path d="M50.7045 40.4219L49.6632 51.9981L40.022 54.6006V63.5944L57.7432 58.6831L57.8732 57.2225L59.377 40.4219H50.7045Z" fill="white"/>
<path d="M40.0302 14.6469V23.2913H19.1502L18.9771 21.3488L18.5833 16.9663L18.3765 14.6469H40.0302ZM40.0008 32.1444V40.7888H30.4952L30.3221 38.8463L29.9277 34.4638L29.7215 32.1444H40.0008Z" fill="#EBEBEB"/>
</svg>
