<svg width="80" height="80" viewBox="0 0 80 80" fill="none" xmlns="http://www.w3.org/2000/svg">
<g clip-path="url(#clip0_51_567)">
<path d="M37.1552 0H50.2365V60.55C43.5258 61.825 38.599 62.3344 33.2483 62.3344C17.279 62.3338 8.95459 55.115 8.95459 41.2687C8.95459 27.9325 17.789 19.2687 31.464 19.2687C33.5877 19.2687 35.2015 19.4387 37.1552 19.9481V0ZM37.1552 30.4781C35.6265 29.9688 34.3521 29.7994 32.7383 29.7994C26.1133 29.7994 22.2902 33.8762 22.2902 41.0112C22.2902 47.9769 25.9433 51.7987 32.654 51.7987C34.0971 51.7987 35.2865 51.7137 37.1552 51.46V30.4781Z" fill="#092E20"/>
<path d="M71.0452 20.2006V50.525C71.0452 60.9731 70.2802 65.9844 67.9871 70.3162C65.8633 74.4794 63.0602 77.1119 57.2846 80L45.1377 74.2244C50.9139 71.5056 53.7164 69.1288 55.5002 65.4744C57.3689 61.7375 57.9646 57.4056 57.9646 46.0231V20.2006H71.0452ZM57.9639 0.0693741H71.0452V13.4906H57.9639V0.0693741Z" fill="#092E20"/>
</g>
<defs>
<clipPath id="clip0_51_567">
<rect width="80" height="80" fill="white"/>
</clipPath>
</defs>
</svg>
