<svg width="80" height="80" viewBox="0 0 80 80" fill="none" xmlns="http://www.w3.org/2000/svg">
<g clip-path="url(#clip0_51_551)">
<path d="M77.9606 36.4863L43.5131 2.04C41.5306 0.0562514 38.3131 0.0562514 36.3275 2.04L29.175 9.19375L38.2488 18.2675C40.3581 17.5556 42.7756 18.0331 44.4563 19.7138C46.1456 21.405 46.6194 23.8431 45.89 25.9594L54.635 34.705C56.7506 33.9756 59.1925 34.4469 60.8813 36.1394C63.2438 38.5 63.2438 42.3269 60.8813 44.6888C60.3198 45.2505 59.6532 45.696 58.9196 46C58.1859 46.304 57.3995 46.4605 56.6053 46.4605C55.8111 46.4605 55.0248 46.304 54.2911 46C53.5574 45.696 52.8908 45.2505 52.3294 44.6888C51.4859 43.8447 50.9109 42.77 50.6768 41.6C50.4427 40.4299 50.5599 39.2167 51.0138 38.1131L42.8588 29.9581L42.8575 51.4213C43.4492 51.7126 43.9894 52.0985 44.4569 52.5638C46.8181 54.9244 46.8181 58.75 44.4569 61.1156C42.095 63.4763 38.2669 63.4763 35.9075 61.1156C33.5463 58.7506 33.5463 54.925 35.9075 52.5638C36.4732 51.9971 37.1461 51.5488 37.8869 51.245V29.5831C37.1455 29.2801 36.4724 28.8315 35.9075 28.2638C34.1188 26.4763 33.6881 23.8513 34.6056 21.6538L25.66 12.7081L2.04001 36.3269C1.08708 37.2801 0.551758 38.5728 0.551758 39.9206C0.551758 41.2685 1.08708 42.5612 2.04001 43.5144L36.4881 77.9606C38.4719 79.9444 41.6881 79.9444 43.675 77.9606L77.9613 43.6744C78.914 42.7209 79.4491 41.4281 79.449 40.0802C79.4489 38.7323 78.9135 37.4396 77.9606 36.4863Z" fill="#F34F29"/>
</g>
<defs>
<clipPath id="clip0_51_551">
<rect width="80" height="80" fill="white"/>
</clipPath>
</defs>
</svg>
