<svg width="80" height="80" viewBox="0 0 80 80" fill="none" xmlns="http://www.w3.org/2000/svg">
<path fill-rule="evenodd" clip-rule="evenodd" d="M39.9998 3.18937C19.1579 3.18937 2.25732 20.0862 2.25732 40.9319C2.25732 57.6081 13.0717 71.755 28.0679 76.7463C29.9536 77.0963 30.6461 75.9275 30.6461 74.9306C30.6461 74.0306 30.6111 71.0575 30.5948 67.9038C20.0948 70.1869 17.8792 63.4506 17.8792 63.4506C16.1623 59.0881 13.6886 57.9281 13.6886 57.9281C10.2636 55.5856 13.9467 55.6344 13.9467 55.6344C17.7361 55.9 19.7323 59.5238 19.7323 59.5238C23.0986 65.2925 28.5617 63.625 30.7155 62.6613C31.0542 60.2219 32.0323 58.5563 33.1117 57.6138C24.7286 56.6606 15.9154 53.4238 15.9154 38.9619C15.9154 34.8413 17.3904 31.4744 19.8048 28.8306C19.4123 27.8806 18.1204 24.0419 20.1698 18.8431C20.1698 18.8431 23.3386 17.8288 30.5511 22.7119C33.5623 21.875 36.7917 21.4544 39.9998 21.44C43.2061 21.4544 46.4373 21.8738 49.4542 22.7106C56.6579 17.8275 59.823 18.8419 59.823 18.8419C61.8773 24.04 60.5854 27.8794 60.1936 28.8294C62.6136 31.4731 64.0779 34.84 64.0779 38.9606C64.0779 53.4569 55.2486 56.6481 46.8442 57.5831C48.1986 58.7544 49.4048 61.0519 49.4048 64.5725C49.4048 69.6225 49.3611 73.6869 49.3611 74.93C49.3611 75.9344 50.0411 77.1113 51.9536 76.7406C66.9411 71.7444 77.743 57.6019 77.743 40.9319C77.7423 20.0875 60.8436 3.18937 39.9998 3.18937Z" fill="#181616"/>
<path d="M16.5525 57.3787C16.4694 57.5662 16.1744 57.6225 15.9056 57.4944C15.6306 57.3719 15.4775 57.1162 15.5662 56.9281C15.6475 56.7344 15.9431 56.6813 16.2162 56.8106C16.4912 56.9338 16.6475 57.1919 16.5519 57.3794L16.5525 57.3787ZM18.0812 59.0844C17.9019 59.2513 17.55 59.1737 17.3112 58.9094C17.0637 58.6469 17.0175 58.295 17.2006 58.1256C17.3869 57.9594 17.7281 58.0381 17.9756 58.3006C18.2219 58.5669 18.2706 58.9156 18.0819 59.085L18.0812 59.0844ZM19.57 61.2575C19.3387 61.4188 18.96 61.2681 18.7262 60.9325C18.495 60.5962 18.495 60.1931 18.7325 60.0325C18.9656 59.8713 19.3387 60.0169 19.5762 60.3494C19.8062 60.69 19.8062 61.0938 19.57 61.2575ZM21.6081 63.3581C21.4019 63.5863 20.9606 63.525 20.6381 63.2144C20.3087 62.91 20.2169 62.4769 20.4237 62.2494C20.6337 62.0206 21.0769 62.0844 21.4012 62.3931C21.7306 62.6969 21.83 63.1306 21.6094 63.3575L21.6081 63.3581ZM24.4206 64.5775C24.3287 64.8731 23.905 65.0075 23.4769 64.8812C23.05 64.7519 22.7706 64.4062 22.8581 64.1075C22.9456 63.8094 23.3725 63.67 23.8031 63.8044C24.23 63.9331 24.5094 64.2769 24.4206 64.5775ZM27.51 64.8031C27.5206 65.1144 27.1581 65.3719 26.71 65.3781C26.2581 65.3888 25.8925 65.1362 25.8881 64.83C25.8881 64.5156 26.2431 64.2613 26.6944 64.2525C27.1425 64.2444 27.5106 64.4944 27.5106 64.8025L27.51 64.8031ZM30.3837 64.3144C30.4375 64.6175 30.1256 64.9294 29.68 65.0125C29.2425 65.0937 28.8362 64.905 28.78 64.6044C28.7262 64.2931 29.0437 63.9812 29.4812 63.9006C29.9275 63.8237 30.3275 64.0062 30.3837 64.3144Z" fill="#181616"/>
</svg>
