<svg width="80" height="80" viewBox="0 0 80 80" fill="none" xmlns="http://www.w3.org/2000/svg">
<mask id="mask0_51_602" style="mask-type:luminance" maskUnits="userSpaceOnUse" x="11" y="0" width="58" height="80">
<path d="M11.75 0.625H68.3125V79.375H11.75V0.625Z" fill="white"/>
</mask>
<g mask="url(#mask0_51_602)">
<path fill-rule="evenodd" clip-rule="evenodd" d="M13.1873 42.9375C13.3123 45.125 15.4998 44.125 16.4998 43.4375C17.4373 42.75 17.7498 43.3125 17.8123 42C17.8748 41.125 17.9373 40.3125 17.9373 39.4375C16.4998 39.3125 14.9373 39.625 13.7498 40.5C13.1873 40.9375 11.9998 42.375 13.1873 42.9375Z" fill="#F6D2A2"/>
</g>
<mask id="mask1_51_602" style="mask-type:luminance" maskUnits="userSpaceOnUse" x="11" y="0" width="58" height="80">
<path d="M11.75 0.625H68.3125V79.375H11.75V0.625Z" fill="white"/>
</mask>
<g mask="url(#mask1_51_602)">
<path d="M14.375 44.5C13.9375 44.5 13.125 44.3125 13 43.0625C12.625 42.8125 12.5 42.5 12.5 42.3125C12.4375 41.5625 13.25 40.6875 13.6875 40.375C14.6875 39.625 16 39.25 17.375 39.25H18.1875V39.4375C18.25 40.125 18.1875 40.8125 18.125 41.4375C18.125 41.625 18.125 41.8125 18.0625 42C18 42.9375 17.8125 43.0625 17.375 43.25C17.1875 43.3125 17 43.375 16.6875 43.625C16.375 43.8125 15.3125 44.5 14.375 44.5ZM17.375 39.625C16.0625 39.625 14.875 40 13.9375 40.6875C13.5 41 12.875 41.75 12.9375 42.25C12.9375 42.4375 13.0625 42.625 13.3125 42.75L13.4375 42.8125V42.9375C13.5 43.9375 14 44.0625 14.375 44.0625C15 44.0625 15.875 43.625 16.4375 43.25C16.8125 43 17.0625 42.9375 17.25 42.875C17.5625 42.75 17.625 42.75 17.6875 42C17.6875 41.8125 17.6875 41.625 17.75 41.4375C17.8125 40.875 17.8125 40.25 17.8125 39.6875C17.625 39.625 17.5 39.625 17.375 39.625Z" fill="black"/>
</g>
<mask id="mask2_51_602" style="mask-type:luminance" maskUnits="userSpaceOnUse" x="11" y="0" width="58" height="80">
<path d="M11.75 0.625H68.3125V79.375H11.75V0.625Z" fill="white"/>
</mask>
<g mask="url(#mask2_51_602)">
<path fill-rule="evenodd" clip-rule="evenodd" d="M13.1875 42.9375C13.5 42.8125 13.875 42.75 14.0625 42.4375L13.1875 42.9375Z" fill="#C6B198"/>
</g>
<mask id="mask3_51_602" style="mask-type:luminance" maskUnits="userSpaceOnUse" x="11" y="0" width="58" height="80">
<path d="M11.75 0.625H68.3125V79.375H11.75V0.625Z" fill="white"/>
</mask>
<g mask="url(#mask3_51_602)">
<path d="M13.1876 43.125C13.1251 43.125 13.0001 43.0625 13.0001 43C12.9376 42.875 13.0001 42.75 13.1251 42.75C13.1876 42.75 13.2501 42.6875 13.2501 42.6875C13.5001 42.5625 13.7501 42.5 13.8751 42.3125C13.9376 42.25 14.0626 42.1875 14.1876 42.25C14.2501 42.3125 14.3126 42.4375 14.2501 42.5625C14.0001 42.875 13.6876 43 13.4376 43.0625L13.3126 43.125H13.1876Z" fill="black"/>
</g>
<mask id="mask4_51_602" style="mask-type:luminance" maskUnits="userSpaceOnUse" x="11" y="0" width="58" height="80">
<path d="M11.75 0.625H68.3125V79.375H11.75V0.625Z" fill="white"/>
</mask>
<g mask="url(#mask4_51_602)">
<path fill-rule="evenodd" clip-rule="evenodd" d="M18.3124 16.5C9.81238 14.125 16.1249 3.3125 22.9374 7.75L18.3124 16.5Z" fill="#6AD7E5"/>
</g>
<mask id="mask5_51_602" style="mask-type:luminance" maskUnits="userSpaceOnUse" x="11" y="0" width="58" height="80">
<path d="M11.75 0.625H68.3125V79.375H11.75V0.625Z" fill="white"/>
</mask>
<g mask="url(#mask5_51_602)">
<path d="M18.4377 16.75L18.2502 16.6875C13.8752 15.4375 13.9377 12.3125 14.0627 11.375C14.3752 9 16.6252 6.5 19.6252 6.5C20.8127 6.5 21.9377 6.875 23.0627 7.625L23.2502 7.75L18.4377 16.75ZM19.6252 6.9375C16.8127 6.9375 14.7502 9.25 14.4377 11.4375C14.1252 13.6875 15.5002 15.4375 18.1877 16.25L22.6252 7.8125C21.6877 7.25 20.6877 6.9375 19.6252 6.9375Z" fill="black"/>
</g>
<mask id="mask6_51_602" style="mask-type:luminance" maskUnits="userSpaceOnUse" x="11" y="0" width="58" height="80">
<path d="M11.75 0.625H68.3125V79.375H11.75V0.625Z" fill="white"/>
</mask>
<g mask="url(#mask6_51_602)">
<path fill-rule="evenodd" clip-rule="evenodd" d="M56 6.9375C62.6875 2.25 68.8125 12.875 61 15.5625L56 6.9375Z" fill="#6AD7E5"/>
</g>
<mask id="mask7_51_602" style="mask-type:luminance" maskUnits="userSpaceOnUse" x="11" y="0" width="58" height="80">
<path d="M11.75 0.625H68.3125V79.375H11.75V0.625Z" fill="white"/>
</mask>
<g mask="url(#mask7_51_602)">
<path d="M60.9375 15.8125L55.75 6.875L55.9375 6.75C57.125 5.9375 58.3125 5.5 59.5 5.5C62.375 5.5 64.4375 7.875 64.875 10.1875C65.0625 11.125 65.25 14.3125 61.125 15.6875L60.9375 15.8125ZM56.3125 7.0625L61.125 15.375C63.5625 14.5 64.8125 12.625 64.4375 10.375C64.0625 8.25 62.125 6.0625 59.5 6.0625C58.4375 6 57.375 6.3125 56.3125 7.0625Z" fill="black"/>
</g>
<mask id="mask8_51_602" style="mask-type:luminance" maskUnits="userSpaceOnUse" x="11" y="0" width="58" height="80">
<path d="M11.75 0.625H68.3125V79.375H11.75V0.625Z" fill="white"/>
</mask>
<g mask="url(#mask8_51_602)">
<path fill-rule="evenodd" clip-rule="evenodd" d="M57.5 70.1875C59.1875 71.25 62.3125 74.4375 59.75 76C57.3125 78.25 55.9375 73.5 53.75 72.875C54.6875 71.625 55.875 70.4375 57.5 70.1875Z" fill="#F6D2A2"/>
</g>
<mask id="mask9_51_602" style="mask-type:luminance" maskUnits="userSpaceOnUse" x="11" y="0" width="58" height="80">
<path d="M11.75 0.625H68.3125V79.375H11.75V0.625Z" fill="white"/>
</mask>
<g mask="url(#mask9_51_602)">
<path d="M58.4375 76.8125C57.4375 76.8125 56.5625 75.8125 55.8125 74.875C55.125 74.125 54.4375 73.3125 53.6875 73.0625L53.375 73L53.5625 72.75C54.3125 71.6875 55.5625 70.3125 57.4375 70H57.5L57.5625 70.0625C58.625 70.75 60.9375 72.6875 60.875 74.5C60.875 75.1875 60.5 75.75 59.8125 76.1875C59.375 76.625 58.9375 76.8125 58.4375 76.8125ZM54.0625 72.75C54.8125 73.0625 55.4375 73.875 56.0625 74.5625C56.8125 75.5 57.5625 76.3125 58.375 76.3125C58.75 76.3125 59.125 76.125 59.5 75.75H59.5625C60.125 75.375 60.4375 74.9375 60.4375 74.375C60.4375 72.9375 58.625 71.125 57.375 70.3125C56.25 70.625 55.125 71.375 54.0625 72.75ZM59.75 76.1875C59.6875 76.1875 59.625 76.125 59.5625 76.0625C59.4375 75.8125 59.3125 75.5 59.25 75.25C59.0625 74.75 58.875 74.25 58.5 73.875C58.4375 73.8125 58.4375 73.6875 58.5 73.5625C58.5625 73.5 58.6875 73.5 58.8125 73.5625C59.25 74 59.5 74.5625 59.6875 75.125L60 75.875C60.0625 76 60 76.125 59.9375 76.1875H59.75Z" fill="black"/>
</g>
<mask id="mask10_51_602" style="mask-type:luminance" maskUnits="userSpaceOnUse" x="11" y="0" width="58" height="80">
<path d="M11.75 0.625H68.3125V79.375H11.75V0.625Z" fill="white"/>
</mask>
<g mask="url(#mask10_51_602)">
<path fill-rule="evenodd" clip-rule="evenodd" d="M26.9998 73.8125C24.9998 74.125 23.8748 75.9375 22.1873 76.875C20.6248 77.8125 19.9998 76.5625 19.8748 76.3125C19.6248 76.1875 19.6248 76.4375 19.2498 76.0625C17.8123 73.75 20.7498 72.0625 22.3123 70.9375C24.4998 70.4375 25.8748 72.3125 26.9998 73.8125Z" fill="#F6D2A2"/>
</g>
<mask id="mask11_51_602" style="mask-type:luminance" maskUnits="userSpaceOnUse" x="11" y="0" width="58" height="80">
<path d="M11.75 0.625H68.3125V79.375H11.75V0.625Z" fill="white"/>
</mask>
<g mask="url(#mask11_51_602)">
<path d="M21.1248 77.375C20.3123 77.375 19.8748 76.6875 19.7498 76.4375H19.6873C19.4998 76.4375 19.3748 76.375 19.1248 76.125V76.0625C17.7498 73.875 20.1248 72.1875 21.6873 71.0625L22.2498 70.6875H22.3748C22.6248 70.625 22.8123 70.625 23.0623 70.625C24.9373 70.625 26.1248 72.25 27.1248 73.5625L27.4373 74L27.0623 74.0625C25.8748 74.25 24.9998 75 24.1248 75.75C23.5623 76.25 22.9998 76.6875 22.3748 77.0625C21.8748 77.25 21.4998 77.375 21.1248 77.375ZM19.7498 76.0625C19.8123 76.0625 19.8748 76.0625 19.9998 76.125H20.0623L20.1248 76.1875C20.2498 76.375 20.5623 76.9375 21.1873 76.9375C21.4998 76.9375 21.8123 76.8125 22.1248 76.625C22.7498 76.3125 23.3123 75.8125 23.8123 75.375C24.6248 74.6875 25.4998 73.9375 26.6248 73.625C25.6873 72.375 24.5623 71 22.9998 71C22.8123 71 22.6248 71 22.4373 71.0625L21.9373 71.4375C20.3123 72.5625 18.3123 74 19.4998 75.875C19.5623 76 19.6248 76.0625 19.7498 76.0625ZM19.8748 76.5C19.7498 76.5 19.6248 76.375 19.6873 76.25C19.7498 75.625 20.0623 75.1875 20.3748 74.6875C20.5623 74.4375 20.6873 74.1875 20.8123 73.9375C20.8748 73.8125 20.9998 73.8125 21.0623 73.8125C21.1873 73.875 21.1873 74 21.1873 74.0625C21.0623 74.375 20.8748 74.625 20.6873 74.875C20.3748 75.3125 20.1248 75.6875 20.0623 76.1875C20.0623 76.4375 19.9998 76.5 19.8748 76.5Z" fill="black"/>
</g>
<mask id="mask12_51_602" style="mask-type:luminance" maskUnits="userSpaceOnUse" x="11" y="0" width="58" height="80">
<path d="M11.75 0.625H68.3125V79.375H11.75V0.625Z" fill="white"/>
</mask>
<g mask="url(#mask12_51_602)">
<path fill-rule="evenodd" clip-rule="evenodd" d="M18.6876 13.5625C17.5626 13 16.7501 12.1875 17.4376 10.875C18.0626 9.6875 19.2501 9.8125 20.3751 10.375L18.6876 13.5625ZM59.2501 12.4375C60.3751 11.875 61.1876 11.0625 60.5001 9.75C59.8751 8.5625 58.6876 8.6875 57.5626 9.25L59.2501 12.4375Z" fill="black"/>
</g>
<mask id="mask13_51_602" style="mask-type:luminance" maskUnits="userSpaceOnUse" x="11" y="0" width="58" height="80">
<path d="M11.75 0.625H68.3125V79.375H11.75V0.625Z" fill="white"/>
</mask>
<g mask="url(#mask13_51_602)">
<path fill-rule="evenodd" clip-rule="evenodd" d="M66.9375 42.625C66.8125 44.8125 64.625 43.8125 63.625 43.125C62.6875 42.4375 62.375 43 62.3125 41.6875C62.25 40.8125 62.1875 40 62.1875 39.125C63.625 39 65.1875 39.3125 66.375 40.1875C67 40.6875 68.125 42.0625 66.9375 42.625Z" fill="#F6D2A2"/>
</g>
<mask id="mask14_51_602" style="mask-type:luminance" maskUnits="userSpaceOnUse" x="11" y="0" width="58" height="80">
<path d="M11.75 0.625H68.3125V79.375H11.75V0.625Z" fill="white"/>
</mask>
<g mask="url(#mask14_51_602)">
<path d="M65.8125 44.1875C64.875 44.1875 63.8125 43.5 63.5 43.3125C63.1875 43.125 63 43 62.8125 42.9375C62.3125 42.75 62.1875 42.625 62.125 41.6875C62.125 41.5 62.125 41.3125 62.0625 41.125C62 40.5 61.9375 39.8125 62 39.125V38.9375H62.8125C64.1875 38.9375 65.5 39.3125 66.5 40.0625C66.9375 40.375 67.75 41.25 67.6875 42C67.6875 42.25 67.5625 42.5625 67.1875 42.75C67.0625 44 66.25 44.1875 65.8125 44.1875ZM62.375 39.375C62.375 39.9375 62.375 40.5625 62.4375 41.125C62.4375 41.3125 62.4375 41.5 62.5 41.6875C62.5625 42.4375 62.625 42.4375 62.9375 42.5625C63.125 42.625 63.375 42.75 63.75 42.9375C64.3125 43.3125 65.1875 43.75 65.8125 43.75C66.1875 43.75 66.6875 43.625 66.75 42.625V42.5L66.875 42.4375C67.125 42.3125 67.25 42.1875 67.25 41.9375C67.3125 41.4375 66.6875 40.6875 66.25 40.375C65.3125 39.6875 64.0625 39.3125 62.8125 39.3125C62.6875 39.375 62.5625 39.375 62.375 39.375Z" fill="black"/>
</g>
<mask id="mask15_51_602" style="mask-type:luminance" maskUnits="userSpaceOnUse" x="11" y="0" width="58" height="80">
<path d="M11.75 0.625H68.3125V79.375H11.75V0.625Z" fill="white"/>
</mask>
<g mask="url(#mask15_51_602)">
<path fill-rule="evenodd" clip-rule="evenodd" d="M66.9375 42.625C66.625 42.5 66.25 42.4375 66.0625 42.125L66.9375 42.625Z" fill="#C6B198"/>
</g>
<mask id="mask16_51_602" style="mask-type:luminance" maskUnits="userSpaceOnUse" x="11" y="0" width="58" height="80">
<path d="M11.75 0.625H68.3125V79.375H11.75V0.625Z" fill="white"/>
</mask>
<g mask="url(#mask16_51_602)">
<path d="M66.9375 42.875H66.875L66.75 42.8125C66.4375 42.6875 66.125 42.625 65.9375 42.3125C65.875 42.25 65.875 42.0625 66 42C66.0625 41.9375 66.25 41.9375 66.3125 42.0625C66.4375 42.25 66.6875 42.3125 66.9375 42.4375C67 42.4375 67.0625 42.5 67.0625 42.5C67.1875 42.5625 67.25 42.6875 67.1875 42.75C67.125 42.8125 67 42.875 66.9375 42.875Z" fill="black"/>
</g>
<mask id="mask17_51_602" style="mask-type:luminance" maskUnits="userSpaceOnUse" x="11" y="0" width="58" height="80">
<path d="M11.75 0.625H68.3125V79.375H11.75V0.625Z" fill="white"/>
</mask>
<g mask="url(#mask17_51_602)">
<path fill-rule="evenodd" clip-rule="evenodd" d="M39.2501 2.5C47.7501 2.5 55.6876 3.6875 59.8751 11.875C63.6251 21 62.25 30.875 62.875 40.5625C63.375 48.875 64.4375 58.4375 60.625 66.125C56.5625 74.1875 46.4376 76.25 38.1251 75.9375C31.5626 75.6875 23.6876 73.5625 19.9376 67.5625C15.6251 60.5625 17.6251 50.125 17.9376 42.3125C18.3126 33.0625 15.4376 23.75 18.5001 14.75C21.5626 5.3125 30.0626 3.1875 39.2501 2.5Z" fill="#6AD7E5"/>
</g>
<mask id="mask18_51_602" style="mask-type:luminance" maskUnits="userSpaceOnUse" x="11" y="0" width="58" height="80">
<path d="M11.75 0.625H68.3125V79.375H11.75V0.625Z" fill="white"/>
</mask>
<g mask="url(#mask18_51_602)">
<path d="M39.5623 76.1875H37.9998C35.4373 76.125 31.5623 75.6875 27.7498 74.125C24.0623 72.625 21.3748 70.5 19.6248 67.6875C16.1248 62 16.7498 54.1875 17.3123 47.25C17.4373 45.5 17.5623 43.875 17.6248 42.3125C17.7498 39.0625 17.4998 35.6875 17.1873 32.5C16.6873 26.625 16.1873 20.5625 18.1248 14.6875C19.6248 10.3125 22.3123 7.1875 26.3748 5.1875C29.5623 3.625 33.4998 2.75 39.1248 2.3125C47.4998 2.25 55.8123 3.4375 59.9998 11.75C62.7498 18.4375 62.7498 25.625 62.8123 32.5625C62.8123 35.1875 62.8123 37.875 62.9998 40.5C63.0623 41.3125 63.1248 42.125 63.1248 42.9375C63.6248 50.5625 64.1873 59.1875 60.6873 66.1875C58.9373 69.75 55.8748 72.375 51.6873 74.0625C48.3123 75.4375 44.0623 76.1875 39.5623 76.1875ZM39.2498 2.6875C30.4373 3.375 21.8123 5.3125 18.6248 14.8125C16.6873 20.625 17.1873 26.625 17.6873 32.4375C17.9373 35.6875 18.2498 39 18.1248 42.3125C18.0623 43.875 17.9373 45.5 17.8123 47.25C17.2498 54.125 16.6248 61.875 20.0623 67.4375C21.4998 69.75 26.1248 75.25 38.0623 75.6875H39.6248C53.4373 75.6875 58.5623 69.5625 60.4373 65.9375C63.8748 59.0625 63.3123 50.4375 62.8748 42.875C62.8123 42.0625 62.7498 41.25 62.7498 40.4375C62.6248 37.8125 62.5623 35.125 62.5623 32.5C62.4998 25.625 62.4998 18.4375 59.8123 11.8125C57.9373 8.125 55.1248 5.625 51.2498 4.1875C47.2498 2.875 42.7498 2.6875 39.2498 2.6875Z" fill="black"/>
</g>
<mask id="mask19_51_602" style="mask-type:luminance" maskUnits="userSpaceOnUse" x="11" y="0" width="58" height="80">
<path d="M11.75 0.625H68.3125V79.375H11.75V0.625Z" fill="white"/>
</mask>
<g mask="url(#mask19_51_602)">
<path fill-rule="evenodd" clip-rule="evenodd" d="M40.7499 13.875C42.2499 22.75 56.7499 20.375 54.6874 11.4375C52.8124 3.43749 40.2499 5.68749 40.7499 13.875Z" fill="white"/>
</g>
<mask id="mask20_51_602" style="mask-type:luminance" maskUnits="userSpaceOnUse" x="11" y="0" width="58" height="80">
<path d="M11.75 0.625H68.3125V79.375H11.75V0.625Z" fill="white"/>
</mask>
<g mask="url(#mask20_51_602)">
<path d="M47.625 19.6875C44.8125 19.6875 41.25 18.1875 40.5 13.9375C40.375 11.9375 41 10.125 42.3125 8.75C43.75 7.1875 45.9375 6.3125 48.1875 6.3125C50.8125 6.3125 53.9375 7.6875 54.8125 11.5C55.3125 13.625 54.9375 15.5 53.75 17C52.4375 18.625 50.125 19.6875 47.625 19.6875ZM40.9375 13.875C41.25 15.625 42.0625 17 43.375 18C44.5 18.875 46.0625 19.3125 47.625 19.3125C49.9375 19.3125 52.1875 18.3125 53.4375 16.75C54.5625 15.375 54.875 13.5625 54.4375 11.5625C53.625 8 50.6875 6.75 48.1875 6.75C46.0625 6.75 44 7.625 42.625 9.0625C41.4375 10.3125 40.8125 12 40.9375 13.875Z" fill="black"/>
</g>
<mask id="mask21_51_602" style="mask-type:luminance" maskUnits="userSpaceOnUse" x="11" y="0" width="58" height="80">
<path d="M11.75 0.625H68.3125V79.375H11.75V0.625Z" fill="white"/>
</mask>
<g mask="url(#mask21_51_602)">
<path fill-rule="evenodd" clip-rule="evenodd" d="M23.4376 15.3125C25.4376 23 37.7501 21.0625 37.3126 13.3125C36.7501 4.0625 21.5001 5.8125 23.4376 15.3125Z" fill="white"/>
</g>
<mask id="mask22_51_602" style="mask-type:luminance" maskUnits="userSpaceOnUse" x="11" y="0" width="58" height="80">
<path d="M11.75 0.625H68.3125V79.375H11.75V0.625Z" fill="white"/>
</mask>
<g mask="url(#mask22_51_602)">
<path d="M30 20.4375C27.3125 20.4375 24.1875 19.125 23.1875 15.375C22.75 13.1875 23.1875 11.1875 24.4375 9.6875C25.8125 8 28.0625 7 30.5 7C33.75 7 37.1875 8.9375 37.4375 13.3125C37.5625 15.125 37 16.75 35.75 18.0625C34.4375 19.5 32.25 20.4375 30 20.4375ZM30.5 7.4375C28.1875 7.4375 26.0625 8.375 24.75 9.9375C23.5625 11.375 23.1875 13.1875 23.625 15.25C24.5 18.75 27.5 20 30 20C32.125 20 34.1875 19.1875 35.5 17.75C36.625 16.5625 37.1875 15 37.0625 13.3125C36.9375 10.625 35.125 7.4375 30.5 7.4375Z" fill="black"/>
</g>
<mask id="mask23_51_602" style="mask-type:luminance" maskUnits="userSpaceOnUse" x="11" y="0" width="58" height="80">
<path d="M11.75 0.625H68.3125V79.375H11.75V0.625Z" fill="white"/>
</mask>
<g mask="url(#mask23_51_602)">
<path fill-rule="evenodd" clip-rule="evenodd" d="M42.5002 24.5C42.5002 25.625 42.7502 26.9375 42.5627 28.1875C42.2502 28.75 41.6877 28.8125 41.1877 29C40.5002 28.875 39.9377 28.4375 39.6252 27.8125C39.4377 26.4375 39.6877 25.0625 39.7502 23.6875L42.5002 24.5Z" fill="white"/>
</g>
<mask id="mask24_51_602" style="mask-type:luminance" maskUnits="userSpaceOnUse" x="11" y="0" width="58" height="80">
<path d="M11.75 0.625H68.3125V79.375H11.75V0.625Z" fill="white"/>
</mask>
<g mask="url(#mask24_51_602)">
<path d="M41.1874 29.25C40.3749 29.125 39.7499 28.625 39.4374 27.9375C39.3124 26.9375 39.3749 26 39.4374 25.0625C39.4999 24.625 39.4999 24.1875 39.4999 23.75V23.5L42.6874 24.5V24.625C42.6874 25 42.7499 25.375 42.7499 25.8125C42.8124 26.625 42.8749 27.5 42.7499 28.3125V28.375C42.4999 28.875 42.0624 29 41.6249 29.1875C41.4999 29.125 41.3749 29.1875 41.1874 29.25ZM39.8124 27.75C40.0624 28.3125 40.5624 28.6875 41.1249 28.8125C41.2499 28.75 41.3749 28.75 41.4374 28.6875C41.8124 28.5625 42.1249 28.4375 42.3124 28.125C42.4374 27.375 42.3749 26.5625 42.3124 25.75C42.3124 25.375 42.2499 25 42.2499 24.6875L39.8749 23.9375C39.8749 24.3125 39.8124 24.6875 39.8124 25C39.7499 26 39.6874 26.875 39.8124 27.75Z" fill="black"/>
</g>
<mask id="mask25_51_602" style="mask-type:luminance" maskUnits="userSpaceOnUse" x="11" y="0" width="58" height="80">
<path d="M11.75 0.625H68.3125V79.375H11.75V0.625Z" fill="white"/>
</mask>
<g mask="url(#mask25_51_602)">
<path fill-rule="evenodd" clip-rule="evenodd" d="M28.9375 14.0625C28.9375 15.3125 28 16.3125 26.875 16.3125C25.75 16.3125 24.8125 15.3125 24.8125 14.0625C24.8125 12.8125 25.75 11.8125 26.875 11.8125C28 11.8125 28.9375 12.8125 28.9375 14.0625Z" fill="black"/>
</g>
<mask id="mask26_51_602" style="mask-type:luminance" maskUnits="userSpaceOnUse" x="11" y="0" width="58" height="80">
<path d="M11.75 0.625H68.3125V79.375H11.75V0.625Z" fill="white"/>
</mask>
<g mask="url(#mask26_51_602)">
<path fill-rule="evenodd" clip-rule="evenodd" d="M28.25 14.5625C28.25 14.875 28 15.125 27.75 15.125C27.5 15.125 27.25 14.875 27.25 14.5625C27.25 14.25 27.5 14 27.75 14C28.0625 14 28.25 14.25 28.25 14.5625Z" fill="white"/>
</g>
<mask id="mask27_51_602" style="mask-type:luminance" maskUnits="userSpaceOnUse" x="11" y="0" width="58" height="80">
<path d="M11.75 0.625H68.3125V79.375H11.75V0.625Z" fill="white"/>
</mask>
<g mask="url(#mask27_51_602)">
<path fill-rule="evenodd" clip-rule="evenodd" d="M46.375 13.5C46.375 14.75 45.4375 15.75 44.3125 15.75C43.1875 15.75 42.25 14.75 42.25 13.5C42.25 12.25 43.1875 11.25 44.3125 11.25C45.4375 11.25 46.375 12.25 46.375 13.5Z" fill="black"/>
</g>
<mask id="mask28_51_602" style="mask-type:luminance" maskUnits="userSpaceOnUse" x="11" y="0" width="58" height="80">
<path d="M11.75 0.625H68.3125V79.375H11.75V0.625Z" fill="white"/>
</mask>
<g mask="url(#mask28_51_602)">
<path fill-rule="evenodd" clip-rule="evenodd" d="M45.75 14C45.75 14.3125 45.5625 14.5625 45.25 14.5625C45 14.5625 44.75 14.3125 44.75 14C44.75 13.6875 44.9375 13.4375 45.25 13.4375C45.5 13.4375 45.75 13.6875 45.75 14ZM36.5 24.375C35.5625 26.5625 37 31 39.5 27.75C39.3125 26.375 39.5625 25 39.625 23.625L36.5 24.375Z" fill="white"/>
</g>
<mask id="mask29_51_602" style="mask-type:luminance" maskUnits="userSpaceOnUse" x="11" y="0" width="58" height="80">
<path d="M11.75 0.625H68.3125V79.375H11.75V0.625Z" fill="white"/>
</mask>
<g mask="url(#mask29_51_602)">
<path d="M37.8124 29.125C37.3749 29.125 36.9374 28.875 36.6249 28.375C35.9374 27.375 35.8124 25.5 36.3124 24.3125L36.3749 24.1875L39.8124 23.3125V23.5625L39.7499 24.9375C39.6874 25.875 39.6249 26.75 39.7499 27.6875V27.75L39.6874 27.8125C39.0624 28.6875 38.4374 29.125 37.8124 29.125ZM36.6874 24.5625C36.3124 25.625 36.4374 27.3125 36.9999 28.125C37.2499 28.5 37.4999 28.6875 37.8124 28.6875C38.2499 28.6875 38.7499 28.3125 39.2499 27.6875C39.1249 26.75 39.1874 25.8125 39.3124 24.9375L39.3749 23.875L36.6874 24.5625Z" fill="black"/>
</g>
<mask id="mask30_51_602" style="mask-type:luminance" maskUnits="userSpaceOnUse" x="11" y="0" width="58" height="80">
<path d="M11.75 0.625H68.3125V79.375H11.75V0.625Z" fill="white"/>
</mask>
<g mask="url(#mask30_51_602)">
<path fill-rule="evenodd" clip-rule="evenodd" d="M36.8126 20.125C35.1251 20.25 33.7501 22.3125 34.6251 23.875C35.8126 26 38.3751 23.6875 40.0001 23.875C41.8751 23.9375 43.3751 25.875 44.8751 24.25C46.5626 22.4375 44.1251 20.6875 42.3126 19.875L36.8126 20.125Z" fill="#F6D2A2"/>
</g>
<mask id="mask31_51_602" style="mask-type:luminance" maskUnits="userSpaceOnUse" x="11" y="0" width="58" height="80">
<path d="M11.75 0.625H68.3125V79.375H11.75V0.625Z" fill="white"/>
</mask>
<g mask="url(#mask31_51_602)">
<path d="M43.5627 25.125C43.0002 25.125 42.4377 24.875 41.8752 24.625C41.3127 24.375 40.6877 24.125 40.0002 24.125H39.8127C39.3127 24.125 38.7502 24.3125 38.1252 24.5625C37.4377 24.8125 36.7502 25 36.1252 25C35.3752 25 34.8127 24.6875 34.4377 24C34.0002 23.25 34.0627 22.375 34.5002 21.5625C35.0002 20.625 35.8752 20.0625 36.8127 19.9375L42.3752 19.6875H42.4377C43.8127 20.25 45.3752 21.3125 45.6877 22.5625C45.8127 23.1875 45.6252 23.8125 45.1252 24.375C44.6252 24.9375 44.1252 25.125 43.5627 25.125ZM40.0627 23.75C40.7502 23.75 41.4377 24.0625 42.0627 24.3125C42.6252 24.5625 43.1252 24.75 43.6252 24.75C44.0627 24.75 44.4377 24.5625 44.8127 24.1875C45.2502 23.75 45.3752 23.25 45.3127 22.75C45.0627 21.6875 43.5627 20.6875 42.3752 20.1875L36.9377 20.4375C36.1252 20.5 35.3752 21.0625 34.9377 21.8125C34.5627 22.5 34.5627 23.25 34.8752 23.875C35.1877 24.4375 35.5627 24.6875 36.1877 24.6875C36.7502 24.6875 37.3752 24.4375 38.0002 24.25C38.6877 24 39.2502 23.8125 39.8752 23.8125C39.8752 23.6875 39.9377 23.6875 40.0627 23.75Z" fill="#231F20"/>
</g>
<mask id="mask32_51_602" style="mask-type:luminance" maskUnits="userSpaceOnUse" x="11" y="0" width="58" height="80">
<path d="M11.75 0.625H68.3125V79.375H11.75V0.625Z" fill="white"/>
</mask>
<g mask="url(#mask32_51_602)">
<path fill-rule="evenodd" clip-rule="evenodd" d="M36.6251 20.0625C36.5001 17.125 42.1251 16.75 42.7501 19.1875C43.4376 21.6875 36.8751 22.25 36.6251 20.0625Z" fill="black"/>
</g>
</svg>
