<svg width="80" height="80" viewBox="0 0 80 80" fill="none" xmlns="http://www.w3.org/2000/svg">
<path d="M11.8981 71.1725L5.64502 1.03813H74.355L68.095 71.1619L39.9581 78.9619L11.8981 71.1725Z" fill="#E44D26"/>
<path d="M40 73L62.7363 66.6963L68.0856 6.77251H40V73Z" fill="#F16529"/>
<path d="M40 32.7844H28.6175L27.8313 23.9756H40V15.3744H18.4307L18.6369 17.6819L20.7507 41.3863H40V32.7844ZM40 55.1238L39.9619 55.1344L30.3825 52.5469L29.7707 45.6875H21.135L22.34 59.1931L39.9607 64.0844L40 64.0738V55.1238Z" fill="#EBEBEB"/>
<path d="M39.9702 32.7844V41.3863H50.5621L49.564 52.5419L39.9702 55.1313V64.0806L57.6046 59.1931L57.734 57.74L59.7552 35.0944L59.9646 32.7844H57.6471H39.9702ZM39.9702 15.3744V23.9756H60.7477L60.9202 22.0431L61.3127 17.6819L61.5183 15.3744H39.9702Z" fill="white"/>
</svg>
