<svg width="80" height="80" viewBox="0 0 80 80" fill="none" xmlns="http://www.w3.org/2000/svg">
<g clip-path="url(#clip0_51_522)">
<path d="M0.879883 0.880005H79.1199V79.1206H0.879883V0.880005Z" fill="#F0DB4F"/>
<path d="M72.717 60.46C72.1438 56.8906 69.8164 53.8925 62.922 51.0969C60.527 49.9962 57.857 49.2081 57.0613 47.3931C56.7788 46.3369 56.7413 45.7419 56.9201 45.1025C57.4332 43.0275 59.9101 42.3806 61.8732 42.9756C63.1376 43.3994 64.3345 44.3737 65.0563 45.9281C68.4326 43.7419 68.4257 43.7562 70.7832 42.2537C69.9201 40.9156 69.4595 40.2981 68.8945 39.7256C66.8638 37.4575 64.097 36.2894 59.672 36.3787L57.367 36.6769C55.1582 37.235 53.0532 38.3944 51.8188 39.9487C48.1151 44.1512 49.1713 51.5062 53.6782 54.5331C58.1182 57.8656 64.6407 58.6237 65.4738 61.74C66.2845 65.555 62.6701 66.79 59.0776 66.3512C56.4301 65.8006 54.9576 64.455 53.3657 62.0081C50.4357 63.7037 50.4357 63.7037 47.4232 65.4362C48.1376 66.9981 48.8882 67.705 50.0857 69.0581C55.7532 74.8069 69.9357 74.5244 72.4795 65.8231C72.5826 65.5244 73.2676 63.5319 72.717 60.46ZM43.4138 36.8394H36.0957L36.0657 55.7594C36.0657 59.7831 36.2738 63.4719 35.6195 64.6025C34.5488 66.8262 31.7745 66.5506 30.5101 66.1194C29.2232 65.4869 28.5688 64.5875 27.8107 63.3162C27.6026 62.9512 27.4463 62.6687 27.3938 62.6469L21.4438 66.2906C22.4332 68.3212 23.8907 70.0837 25.7576 71.2287C28.5463 72.9025 32.2945 73.4156 36.2145 72.5156C38.7657 71.7725 40.967 70.2331 42.1195 67.89C43.7857 64.8181 43.4282 61.1 43.4132 56.9875C43.4507 50.2781 43.4138 43.57 43.4138 36.8394Z" fill="#323330"/>
</g>
<defs>
<clipPath id="clip0_51_522">
<rect width="80" height="80" fill="white"/>
</clipPath>
</defs>
</svg>
