<svg width="80" height="80" viewBox="0 0 80 80" fill="none" xmlns="http://www.w3.org/2000/svg">
<path d="M34.5315 2.59375C34.3252 2.6625 33.219 3.01875 32.0565 3.4C25.8065 5.44375 21.3815 7.8125 20.2815 9.6875C19.8627 10.4062 19.7815 10.9875 20.0315 11.5687C20.3065 12.225 20.8127 12.7188 22.2002 13.7C22.8502 14.1562 23.9565 15.1125 24.6752 15.8312C28.1127 19.2625 29.7815 23.4687 29.594 28.225C29.3815 33.575 26.8752 38.925 22.0752 44.2812C20.4002 46.15 18.6815 47.7062 15.3815 50.35C12.6315 52.55 11.1377 53.975 10.119 55.3562C7.00022 59.6062 7.83147 63.3937 12.594 66.5562C16.794 69.35 24.194 71.675 32.9127 72.9375C35.8377 73.3625 39.144 73.6312 39.9377 73.5125L40.494 73.4312L41.369 71.8562C45.794 63.8875 48.0315 56.375 48.3002 48.6C48.419 45.1313 47.9815 41.025 47.2377 38.625C47.1002 38.1937 47.0002 37.825 47.019 37.8125C47.0315 37.8 48.269 37.4312 49.769 36.9812C57.6502 34.6312 65.2752 32.7812 71.5752 31.6875C72.8002 31.475 73.8502 31.2562 73.9065 31.2C74.244 30.8687 73.2627 29.3375 71.669 27.6937C65.7752 21.6125 55.3627 16.9812 43.144 15.0125C40.7877 14.6312 40.5002 14.4937 39.6252 13.3375C38.2377 11.5 36.9315 8.35625 35.1502 2.60625C35.094 2.43125 35.0377 2.43125 34.5315 2.59375ZM35.344 4.75625C36.0315 6.625 36.4502 8.09375 36.4502 8.6125V9.01875L35.869 8.95C32.719 8.5875 27.694 7.80625 26.6252 7.51875C26.3502 7.44375 26.194 7.3375 26.244 7.25625C26.3252 7.125 27.394 6.6125 30.569 5.16875C33.5315 3.825 34.6565 3.325 34.744 3.31875C34.7815 3.31875 35.0502 3.9625 35.344 4.75625ZM28.6815 8.7C32.5252 9.50625 35.3252 10.0125 35.944 10.0125C36.544 10.0125 36.4752 10.0625 33.6502 11.7875C31.469 13.1125 31.219 13.2375 30.669 13.2375H30.069L28.4565 11.6C26.5002 9.61875 25.1752 8.16875 25.1752 8.00625C25.1752 7.9375 25.2127 7.91875 25.269 7.95C25.319 7.975 26.8627 8.31875 28.6815 8.7ZM25.844 10.5187C26.7877 11.6187 27.519 12.5437 27.4815 12.5875C27.4002 12.6687 24.7065 12 23.0565 11.4937C21.619 11.05 21.444 10.9 21.8252 10.4125C22.0752 10.0875 23.9315 8.5375 24.069 8.53125C24.1065 8.525 24.9002 9.4125 25.844 10.5187ZM38.1065 12.8C38.4815 13.6937 38.769 14.4187 38.7565 14.4312C38.7377 14.4437 33.6877 13.6625 33.244 13.575C33.1502 13.5562 34.0065 12.975 35.1565 12.275C36.3065 11.575 37.2877 11.0437 37.3377 11.1C37.3877 11.1437 37.7315 11.9062 38.1065 12.8ZM27.094 14.4937C27.194 14.5938 28.4002 18.4687 28.344 18.5187C28.3252 18.5375 27.7502 17.875 27.069 17.0312C26.3815 16.1875 25.3502 15.0062 24.7565 14.3875L23.6877 13.2687L25.3565 13.8437C26.269 14.1625 27.0565 14.4563 27.094 14.4937ZM31.919 15.0125C34.0127 15.3125 35.7502 15.5812 35.7815 15.6125C35.8065 15.6437 34.544 16.625 32.969 17.8C31.394 18.9687 30.094 19.9125 30.0752 19.8937C30.0565 19.875 29.9002 19.3875 29.7252 18.8062C29.5502 18.225 29.1002 17.0188 28.7315 16.1125C28.3627 15.2063 28.0752 14.4687 28.0877 14.4687C28.1002 14.4687 29.8252 14.7188 31.919 15.0125ZM37.1815 16.6875C37.644 17.7688 37.8252 18.8062 37.9002 20.875C37.9377 21.9875 37.944 22.8937 37.9065 22.8937C37.869 22.8937 37.2065 22.6625 36.4377 22.3875C34.9002 21.8312 31.8877 20.8375 31.5315 20.7687C31.3752 20.7375 32.1002 20.0437 34.0065 18.4C35.494 17.1187 36.7565 16.075 36.8127 16.075C36.8752 16.0812 37.0377 16.3562 37.1815 16.6875ZM42.5815 16.95C44.9002 17.425 46.9252 17.85 47.0877 17.8875C47.319 17.9437 46.7627 18.2937 44.3127 19.6375C42.6252 20.5625 40.7127 21.6125 40.0627 21.9812C39.4065 22.35 38.869 22.6312 38.8565 22.6187C38.844 22.6062 38.9127 22.2625 39.0065 21.85C39.3565 20.35 39.1377 18.475 38.4377 16.9812C38.2315 16.55 38.0627 16.1687 38.0627 16.1375C38.0627 16.0312 38.4815 16.1062 42.5815 16.95ZM48.9002 19.7812C48.7815 20.3062 48.5252 21.2 48.319 21.7812C47.8752 23.0562 46.2565 26.3625 46.0377 26.45C45.9502 26.4875 45.1877 26.1312 44.3565 25.6687C43.5252 25.2062 42.319 24.5937 41.6877 24.3125L40.5377 23.8L44.7815 21.0812C48.3002 18.825 49.0315 18.4 49.069 18.6C49.094 18.725 49.019 19.2562 48.9002 19.7812ZM52.0002 18.8125C56.4002 20.075 61.044 21.7812 60.7752 22.0375C60.719 22.0875 60.144 22.2812 59.5002 22.4625C56.1815 23.4062 51.5627 25 49.4002 25.95C48.7315 26.2437 48.1502 26.4625 48.119 26.4312C48.0877 26.4 48.3502 25.425 48.7065 24.275C49.4002 22.0062 50.2065 18.9437 50.2065 18.55C50.2065 18.375 50.269 18.3187 50.4252 18.3625C50.5377 18.3937 51.244 18.5938 52.0002 18.8125ZM33.0815 23.375C34.0877 23.7062 35.2565 24.15 35.6877 24.3687C36.469 24.7625 36.4752 24.7687 36.2502 25.0125C35.8502 25.4562 31.4815 29.525 31.3565 29.5687C31.294 29.5937 31.244 28.975 31.244 28.0812C31.2377 26.5312 31.0627 23.7375 30.9315 23.1125C30.8315 22.6562 30.9127 22.6625 33.0815 23.375ZM61.019 24.1812C60.0565 25.7687 58.4752 28.0312 57.3315 29.4562C56.1627 30.9187 53.694 33.6687 53.5502 33.6687C53.494 33.6687 53.1377 33.225 52.7565 32.675C51.3502 30.6687 49.719 28.9312 48.2877 27.9187C48.1502 27.825 48.069 27.7187 48.1002 27.6875C48.1315 27.6562 50.4815 26.7937 53.3065 25.7687C59.0315 23.6937 61.5502 22.85 61.7065 22.9625C61.719 22.9812 61.4127 23.525 61.019 24.1812ZM64.6002 23.9125C68.5502 26.6687 71.2377 28.9 72.2127 30.2312C72.4565 30.5687 72.6377 30.8562 72.6127 30.875C72.5877 30.8937 71.319 31.0375 69.7815 31.1875C63.6502 31.7937 59.2815 32.4062 56.969 32.9937C56.3502 33.15 55.8315 33.2687 55.8252 33.2625C55.8127 33.25 56.219 32.75 56.7377 32.1312C59.4127 28.925 61.8252 25.5875 62.7252 23.8562C62.9627 23.4 63.194 23.025 63.244 23.025C63.2877 23.0187 63.894 23.4187 64.6002 23.9125ZM42.4565 27.3312C43.2127 27.7375 43.794 28.1125 43.7627 28.175C43.7065 28.2875 37.0377 31.9375 36.9815 31.8875C36.969 31.875 37.3127 30.7812 37.7502 29.4437C38.1877 28.1062 38.6127 26.6562 38.694 26.2125L38.844 25.4L39.969 26C40.594 26.3312 41.7002 26.925 42.4565 27.3312ZM36.8752 27.5437C36.2315 29.775 34.9252 32.65 34.3315 33.15C34.194 33.2625 33.9252 33.1062 33.044 32.3937C32.4252 31.8937 31.794 31.4 31.6252 31.2875C31.4627 31.175 31.344 31.0562 31.369 31.025C31.8252 30.5687 37.1377 26.2875 37.1627 26.3562C37.1815 26.4 37.0502 26.9375 36.8752 27.5437ZM48.9502 31.425C49.9565 32.0937 52.1815 34.0875 52.0627 34.2125C52.0315 34.2437 49.769 34.9812 47.044 35.8375C44.319 36.7 41.2815 37.675 40.294 38.0062C39.3002 38.3375 38.4877 38.6 38.4815 38.5875C38.469 38.575 39.1627 37.7875 40.019 36.8312C42.2502 34.3437 44.544 31.675 45.3565 30.625L46.0565 29.7187L46.9752 30.2125C47.469 30.4875 48.369 31.0375 48.9502 31.425ZM43.7877 29.9937C43.7252 30.075 43.1252 30.8375 42.4502 31.6937C41.7752 32.5437 40.1627 34.6187 38.8502 36.3L36.469 39.3625L36.3877 38.8437C36.2377 37.8375 35.7002 35.8812 35.394 35.2125L35.0877 34.5437L36.6002 33.7875C38.1627 33.0062 41.419 31.2375 42.944 30.35C43.9065 29.7875 43.969 29.7625 43.7877 29.9937ZM31.1565 33.6937C31.7752 34.0125 32.3565 34.425 32.3565 34.5562C32.3565 34.7562 28.3252 37.8687 28.219 37.75C28.194 37.725 28.5565 37.0062 29.0252 36.15C29.5002 35.2937 29.9752 34.3375 30.0877 34.0125C30.2002 33.6875 30.3752 33.425 30.4627 33.425C30.5627 33.425 30.8752 33.55 31.1565 33.6937ZM34.594 37.525C34.8752 38.0687 35.1627 39.6 35.0127 39.7375C34.9502 39.7937 33.2877 40.5812 31.3065 41.4875C29.3252 42.3937 26.7565 43.6125 25.5752 44.2C24.4002 44.7875 23.5065 45.2 23.594 45.125C23.6815 45.0437 24.9752 43.9625 26.4752 42.7125C29.3752 40.3 32.6815 37.4187 33.2877 36.7812L33.6502 36.4L34.0065 36.7437C34.2065 36.9312 34.469 37.2812 34.594 37.525ZM31.3377 37.4937C31.0502 37.75 29.5002 39.1062 27.9002 40.4937C26.3002 41.875 24.3752 43.55 23.6252 44.2063C22.1127 45.525 22.1127 45.525 24.044 43.0062C25.5377 41.0562 26.319 40.3312 28.4627 38.8937C29.5065 38.1937 31.5815 37.025 31.7815 37.025C31.8252 37.0187 31.6252 37.2375 31.3377 37.4937ZM46.3565 38.8187C46.4377 39.225 46.5315 40.5 46.5752 41.6375L46.6502 43.7125L46.169 43.4875C44.5065 42.7187 39.8377 40.0875 40.0127 40.0187C41.0315 39.6125 46.0752 37.9375 46.1315 37.9937C46.1752 38.0375 46.2752 38.4062 46.3565 38.8187ZM42.394 42.5312C44.3377 43.675 45.944 44.625 45.969 44.6437C45.994 44.6625 45.7377 44.875 45.419 45.1125C44.8002 45.5687 38.2065 48.975 38.119 48.8875C38.094 48.8625 38.1815 48.2937 38.3127 47.6375C38.5815 46.3125 38.8252 42.3625 38.7065 41.1062C38.669 40.6625 38.6815 40.35 38.744 40.3875C38.8127 40.425 40.4502 41.3875 42.394 42.5312ZM37.019 41.6937C37.169 42.925 36.9877 45.4 36.6565 46.6875C36.2627 48.2 36.0377 48.8312 35.869 48.8875C35.6377 48.9687 34.2002 47.6562 33.319 46.5625C32.4315 45.4625 31.269 43.3875 31.444 43.2187C31.5502 43.1187 36.6877 41 36.844 40.9937C36.894 40.9875 36.9752 41.3062 37.019 41.6937ZM30.719 44.7875C31.2627 45.9125 32.5065 47.5375 33.869 48.9125C34.744 49.7937 34.9627 50.0812 34.8252 50.1687C34.2127 50.5812 31.4815 51.8625 29.7565 52.5375C27.6627 53.3625 24.944 54.3 24.8815 54.225C24.8565 54.2 25.4815 53.0625 26.269 51.7C27.9752 48.7375 30.1315 44.55 30.1315 44.2063C30.1315 43.7688 30.3127 43.9438 30.719 44.7875ZM27.494 44.8562C27.4627 44.9437 27.2002 45.5937 26.919 46.3125C25.7065 49.3875 23.3502 53.5625 22.8252 53.5625C22.419 53.5625 21.819 51.1312 21.6502 48.7937L21.5627 47.6187L24.444 46.1625C26.0315 45.3625 27.3752 44.7062 27.444 44.7062C27.5002 44.7 27.5252 44.7687 27.494 44.8562ZM46.7315 47.7C46.744 49.4687 46.0002 53.75 45.6065 54.1812C45.444 54.3625 43.6127 53.6875 41.969 52.8375C40.494 52.075 38.069 50.5687 38.069 50.4187C38.069 50.375 38.4377 50.1875 38.9002 49.9937C39.7752 49.625 43.844 47.45 45.569 46.4312L46.5627 45.8437L46.6502 46.2937C46.6815 46.5375 46.7252 47.1812 46.7315 47.7ZM19.5877 49.7437C19.7565 51.1437 20.1877 52.8562 20.7252 54.2187C20.944 54.775 21.1002 55.2562 21.0752 55.2812C20.8627 55.475 12.2065 57.8562 11.0627 58.0375L10.519 58.125L10.6002 57.7062C10.719 57.1125 11.5565 55.4 12.1815 54.475C12.9565 53.325 14.8752 51.4 16.144 50.5062C17.0877 49.8375 19.3627 48.5125 19.4315 48.5875C19.4377 48.5937 19.5127 49.1125 19.5877 49.7437ZM39.2252 52.6937C41.9002 53.975 42.9127 54.4187 44.194 54.8625L45.1752 55.2L44.5565 55.5125C41.0502 57.2875 34.8502 59.8187 33.244 60.1312C32.8877 60.2 32.8377 60.1812 32.9065 60.0062C33.1815 59.2875 36.8815 51.6437 36.9502 51.6437C36.994 51.6375 38.0252 52.1187 39.2252 52.6937ZM34.519 52.4062C34.3315 53.3062 33.3127 56.225 32.719 57.55C32.2065 58.7 31.019 60.9437 30.8065 61.1562C30.7127 61.25 28.6002 60.0562 27.6002 59.3437C26.4752 58.5437 24.0127 56.1687 24.0815 55.95C24.1065 55.8687 25.6065 55.2937 27.4127 54.6687C31.219 53.3562 33.3502 52.5625 33.969 52.2437C34.569 51.9312 34.619 51.95 34.519 52.4062ZM45.1627 56.4375C45.1252 56.7 44.9127 57.85 44.6815 59.0125C43.9565 62.6562 43.0752 65.1437 42.5127 65.1437C41.7377 65.1437 36.4315 63.8562 34.719 63.25C33.5565 62.8375 32.5502 62.3687 32.219 62.075C32.0127 61.8937 32.119 61.8312 33.644 61.2062C38.5502 59.2062 44.2065 56.6562 44.819 56.1687C45.1752 55.8875 45.2315 55.925 45.1627 56.4375ZM20.3377 57.55C19.7815 58.5437 18.6377 60.1875 16.4627 63.125L14.6065 65.625L14.0502 65.225C13.269 64.6687 12.0315 63.3187 11.5127 62.4625C10.9565 61.5437 10.5752 60.4125 10.5315 59.55L10.494 58.8812L11.4127 58.7875C12.6565 58.6625 16.1315 57.9437 18.6127 57.2937C19.7377 57 20.6752 56.775 20.7002 56.7937C20.719 56.8187 20.5565 57.1562 20.3377 57.55ZM25.7315 60.1187C26.3502 60.5625 27.2002 61.125 27.6377 61.3812L28.4315 61.8437L28.0752 61.9937C27.8752 62.075 24.994 63.125 21.6627 64.3312C15.9752 66.3875 15.6002 66.5062 15.444 66.2937C15.3502 66.1687 15.2877 66.0375 15.3002 65.9937C15.3127 65.95 16.8502 63.9687 18.719 61.575L22.1127 57.2312L23.3627 58.275C24.0627 58.8562 25.1127 59.675 25.7315 60.1187ZM27.1315 66.65C25.8877 68.5062 24.8377 70.075 24.8002 70.125C24.7065 70.25 22.719 69.7812 21.2315 69.2875C19.669 68.7625 17.744 67.7875 16.994 67.1437L16.4502 66.675L17.6752 66.3437C22.694 64.975 29.3315 63.2187 29.3627 63.2437C29.3877 63.25 28.3752 64.7937 27.1315 66.65ZM33.1065 63.8375C35.7627 64.75 38.1877 65.2687 41.3315 65.6062L42.2002 65.7L39.8565 66.5437C34.0065 68.6562 29.269 70.1375 26.8815 70.6C26.2127 70.7312 25.6002 70.8375 25.5315 70.8375C25.4627 70.8375 25.944 70.1812 26.6002 69.3875C28.3877 67.2062 30.3252 64.725 30.8377 63.9625C31.0877 63.5937 31.3377 63.2812 31.394 63.2812C31.4502 63.2875 32.2127 63.5312 33.1065 63.8375ZM41.8252 68.7625C40.819 71.3625 40.0815 72.9437 39.819 73.0437C39.319 73.2375 32.4127 72.2187 30.3065 71.65C28.9065 71.2687 28.0127 70.9 28.2752 70.8062C28.3752 70.7687 29.3752 70.5375 30.5065 70.2812C34.1627 69.4562 39.7377 67.7625 42.044 66.775C42.344 66.65 42.6065 66.5562 42.6252 66.575C42.6377 66.5937 42.2815 67.575 41.8252 68.7625Z" fill="black"/>
</svg>
