<svg width="80" height="80" viewBox="0 0 80 80" fill="none" xmlns="http://www.w3.org/2000/svg">
<path d="M34.6167 41.5431H39.8248L37.0704 37.1119L32.0154 45.1237H29.7148L35.8636 35.5C35.9987 35.3055 36.1792 35.147 36.3896 35.0383C36.5999 34.9296 36.8337 34.874 37.0704 34.8762C37.5486 34.8762 37.9942 35.1031 38.2529 35.4837L44.4254 45.1237H42.1248L41.0398 43.3331H35.7661L34.6167 41.5431ZM58.5136 43.3331V34.9738H56.5617V44.1519C56.5617 44.4031 56.6592 44.6463 56.8454 44.8325C57.0317 45.0188 57.2829 45.1237 57.5586 45.1237H66.4611L67.6117 43.3331H58.5136ZM26.2154 41.835C28.1111 41.835 29.6504 40.3044 29.6504 38.4087C29.6504 36.5131 28.1117 34.9738 26.2154 34.9738H17.6748V45.1244H19.6267V36.7637H26.0861C26.9936 36.7637 27.7223 37.5013 27.7223 38.4081C27.7223 39.315 26.9929 40.0525 26.0861 40.0525L20.5823 40.0444L26.4098 45.1237H29.2461L25.3248 41.8344L26.2154 41.835ZM5.6617 45.1237C2.85982 45.1237 0.585449 42.8556 0.585449 40.0525C0.585449 37.2494 2.8592 34.9731 5.6617 34.9731H11.5611C14.3642 34.9731 16.6367 37.25 16.6367 40.0525C16.6367 42.855 14.3642 45.1237 11.5611 45.1237H5.6617ZM11.4298 43.3331C11.8611 43.3338 12.2883 43.2494 12.6869 43.0849C13.0855 42.9203 13.4478 42.6788 13.753 42.3741C14.0582 42.0694 14.3004 41.7075 14.4656 41.3091C14.6309 40.9108 14.716 40.4838 14.7161 40.0525C14.7162 39.1806 14.3702 38.3443 13.7539 37.7275C13.1377 37.1107 12.3017 36.7638 11.4298 36.7631H5.7917C4.92001 36.7641 4.08437 37.1111 3.4684 37.7279C2.85244 38.3447 2.50653 39.1808 2.5067 40.0525C2.50678 40.4837 2.59184 40.9106 2.75701 41.3089C2.92218 41.7071 3.16422 42.0689 3.4693 42.3736C3.77438 42.6783 4.13652 42.9199 4.53501 43.0845C4.9335 43.2491 5.36054 43.3336 5.7917 43.3331H11.4298ZM48.5011 45.1237C45.6986 45.1237 43.4223 42.8556 43.4223 40.0525C43.4223 37.2494 45.6986 34.9731 48.5011 34.9731H55.5086L54.3654 36.7631H48.6311C47.7588 36.7636 46.9223 37.1103 46.3055 37.7271C45.6886 38.3438 45.3417 39.1802 45.3411 40.0525C45.3411 41.8669 46.8161 43.3331 48.6311 43.3331H55.6704L54.5204 45.1237H48.5011ZM72.3742 43.3331C71.6591 43.3334 70.9634 43.1001 70.3931 42.6687C69.8228 42.2373 69.4091 41.6314 69.2148 40.9431H77.5586L78.7086 39.1531H69.2148C69.4105 38.4657 69.8247 37.8607 70.3947 37.4296C70.9646 36.9984 71.6595 36.7644 72.3742 36.7631H78.1011L79.2598 34.9731H72.2442C69.4417 34.9731 67.1654 37.25 67.1654 40.0525C67.1654 42.855 69.4417 45.1237 72.2442 45.1237H78.2636L79.4142 43.3331H72.3742Z" fill="#EA1B22"/>
</svg>
