<svg width="80" height="80" viewBox="0 0 80 80" fill="none" xmlns="http://www.w3.org/2000/svg">
<path d="M39.6195 7.65501C36.9808 7.66751 34.462 7.89188 32.2445 8.28438C25.7133 9.43813 24.5283 11.8531 24.5283 16.3075V22.1894H39.9614V24.15H18.7358C14.2508 24.15 10.3233 26.8456 9.0945 31.9756C7.677 37.8538 7.6145 41.5225 9.0945 47.6606C10.1914 52.23 12.8114 55.485 17.297 55.485H22.6039V48.4338C22.6039 43.3394 27.0107 38.8463 32.2451 38.8463H47.6608C51.952 38.8463 55.377 35.3125 55.377 31.0038V16.3081C55.377 12.125 51.8483 8.98313 47.6608 8.28501C45.0083 7.84376 42.2576 7.64313 39.6195 7.65501ZM31.2733 12.3856C32.867 12.3856 34.1695 13.7088 34.1695 15.3363C34.1695 16.9569 32.8676 18.2675 31.2733 18.2675C29.6733 18.2675 28.3776 16.9569 28.3776 15.3363C28.377 13.7088 29.6733 12.3856 31.2733 12.3856Z" fill="url(#paint0_linear_51_547)"/>
<path d="M57.3014 24.15V31.0038C57.3014 36.3163 52.7964 40.7881 47.6602 40.7881H32.2446C28.0221 40.7881 24.5283 44.4025 24.5283 48.6313V63.3281C24.5283 67.51 28.1646 69.9706 32.2446 71.17C37.1296 72.6056 41.8146 72.8656 47.6602 71.17C51.5452 70.0444 55.3764 67.7806 55.3764 63.3281V57.4456H39.9614V55.4844H63.0939C67.5789 55.4844 69.2514 52.3563 70.8114 47.66C72.4227 42.8256 72.3533 38.1763 70.8114 31.975C69.7027 27.5094 67.5858 24.1494 63.0939 24.1494L57.3014 24.15ZM48.6308 61.3669C50.2314 61.3669 51.5271 62.6775 51.5271 64.2994C51.5271 65.9256 50.2308 67.2488 48.6308 67.2488C47.0371 67.2488 45.7352 65.9256 45.7352 64.2994C45.7352 62.6775 47.0371 61.3669 48.6308 61.3669Z" fill="url(#paint1_linear_51_547)"/>
<path opacity="0.444" d="M60.818 74.7481C60.818 76.9625 51.558 78.7581 40.1361 78.7581C28.7136 78.7581 19.4536 76.9625 19.4536 74.7481C19.4536 72.5331 28.713 70.7375 40.1361 70.7375C51.558 70.7375 60.818 72.5325 60.818 74.7481Z" fill="url(#paint2_radial_51_547)"/>
<defs>
<linearGradient id="paint0_linear_51_547" x1="6.46067" y1="9.49415" x2="42.0568" y2="39.8503" gradientUnits="userSpaceOnUse">
<stop stop-color="#5A9FD4"/>
<stop offset="1" stop-color="#306998"/>
</linearGradient>
<linearGradient id="paint1_linear_51_547" x1="55.4495" y1="58.7202" x2="42.6841" y2="40.8189" gradientUnits="userSpaceOnUse">
<stop stop-color="#FFD43B"/>
<stop offset="1" stop-color="#FFE873"/>
</linearGradient>
<radialGradient id="paint2_radial_51_547" cx="0" cy="0" r="1" gradientUnits="userSpaceOnUse" gradientTransform="translate(40.0525 74.6333) rotate(-90) scale(4.01145 17.6337)">
<stop stop-color="#B8B8B8" stop-opacity="0.498"/>
<stop offset="1" stop-color="#7F7F7F" stop-opacity="0"/>
</radialGradient>
</defs>
</svg>
