<svg width="80" height="80" viewBox="0 0 80 80" fill="none" xmlns="http://www.w3.org/2000/svg">
<path fill-rule="evenodd" clip-rule="evenodd" d="M0.761719 35.0975C0.761719 35.5369 0.891094 35.8269 0.963594 36.1087C1.43609 37.9419 2.45172 39.515 3.65672 40.95C5.37297 42.995 7.47484 44.6413 9.62797 46.1894C11.4955 47.5319 13.4011 48.8444 15.2761 50.1769C15.598 50.4056 15.9023 50.6687 16.2517 50.9494C15.9511 51.1119 15.7011 51.255 15.4411 51.3869C12.9667 52.6419 10.5861 54.0488 8.39172 55.7531C7.06922 56.7806 5.79047 57.8725 4.88734 59.2994C3.43422 61.5944 2.91984 64.0394 4.00297 66.65C4.31922 67.4125 4.80172 68.0713 5.48234 68.5581C5.70297 68.7156 5.95047 68.8719 6.20859 68.9331C6.86984 69.0887 7.54359 69.1906 8.21297 69.3138L10.1086 69.3125C12.2048 69.1256 14.113 68.4075 15.8373 67.2175C18.5323 65.3575 20.348 62.8638 21.1286 59.6631C21.6961 57.3369 21.7192 55.0081 21.0505 52.6925C20.9865 52.478 20.9126 52.2665 20.8292 52.0588C20.748 51.8506 20.6523 51.6481 20.5398 51.3887L24.8373 48.9175L24.9017 48.9725C24.8236 49.2281 24.7405 49.4831 24.6698 49.7412C24.1592 51.6063 23.8198 53.5038 23.9417 55.4394C24.0717 57.5019 24.6473 59.4325 25.8548 61.1556C26.8311 62.5494 29.1573 62.6013 30.1948 61.2025C30.563 60.7056 30.9198 60.1863 31.188 59.6319C31.8886 58.185 32.5373 56.7125 33.2067 55.25L33.3236 54.9825C33.2755 55.675 33.2192 56.2831 33.1936 56.8919C33.1536 57.8425 33.2092 58.7875 33.5342 59.6919C33.8123 60.4656 34.2855 61.0438 35.1717 61.1456C35.778 61.215 36.2611 60.9375 36.7067 60.5856C37.3971 60.0401 37.9693 59.3598 38.3886 58.5863C39.5767 56.4044 40.7967 54.2356 41.8736 51.9987C43.0386 49.5794 44.0573 47.0894 45.1392 44.6287L45.318 44.1925C45.5736 45.1969 45.7517 46.1806 46.0798 47.1119C46.4611 48.1925 46.933 49.2475 47.4467 50.2731C47.6898 50.7575 47.6617 51.0719 47.3248 51.4781C45.9148 53.1781 44.5292 54.8988 43.1423 56.6175C42.8355 56.9969 42.5298 57.3831 42.2742 57.7975C42.1191 58.0592 42.0172 58.3489 41.9742 58.65C41.9312 58.9272 41.9972 59.2104 42.1583 59.44C42.3195 59.6697 42.5633 59.828 42.8386 59.8819C43.3943 60.0015 43.9641 60.0422 44.5311 60.0025C46.4667 59.86 48.2242 59.1806 49.778 58.0294C51.7911 56.5381 52.4373 54.5031 51.9498 52.0913C51.818 51.4369 51.5848 50.8006 51.358 50.17C51.2561 49.8856 51.2492 49.6862 51.4348 49.4212C53.0442 47.1231 54.4192 44.685 55.698 42.1906C55.7486 42.0925 55.8005 41.9944 55.8892 41.8894C56.3036 44.0456 56.9273 46.1238 58.0448 48.0094C57.4748 48.5588 56.9105 49.0569 56.3998 49.6056C55.2755 50.8144 54.3005 52.1269 53.7917 53.7275C53.573 54.4175 53.4048 55.1188 53.5023 55.8556C53.6536 57 54.5911 57.7438 55.7167 57.4831C58.1255 56.9256 60.2048 55.7906 61.7242 53.78C62.7467 52.4262 62.8398 50.9162 62.4117 49.3344C62.2942 48.9044 62.1548 48.4813 62.0048 47.9881C62.5992 47.8037 63.1786 47.5825 63.778 47.4456C66.8898 46.7356 69.968 46.8594 72.9667 47.9831C74.7173 48.6394 76.1317 49.7375 76.9705 51.465C77.9948 53.5769 77.4286 55.5806 75.438 56.9156C75.2523 57.04 75.0398 57.1381 74.8861 57.2937C74.8368 57.3508 74.8 57.4175 74.778 57.4896C74.7559 57.5617 74.7491 57.6376 74.758 57.7125C74.7711 57.7894 74.9742 57.8856 75.0911 57.8844C75.7455 57.8794 76.2761 57.5363 76.7855 57.1838C78.0617 56.3006 78.993 55.1125 79.1936 53.5481L79.233 53.4306L79.1848 52.4119C79.1655 52.3531 79.1992 52.295 79.1948 52.2506C78.9236 49.9725 77.7067 48.2056 75.9367 46.8206C73.8867 45.2175 71.4661 44.5575 68.9061 44.4531C66.8298 44.3638 64.7562 44.6829 62.803 45.3925C62.2423 45.5956 61.6867 45.8362 61.123 46.0631C61.0473 45.9262 60.9661 45.795 60.8992 45.6594C60.3205 44.4744 59.6192 43.3419 59.4642 41.9831C59.3542 41.0181 59.2192 40.0544 59.4486 39.1C59.6692 38.1819 59.9567 37.2794 60.2273 36.3738C60.3667 35.9075 60.2686 35.6463 59.8236 35.4363C59.6685 35.3589 59.5031 35.3046 59.3323 35.275C58.2386 35.1162 57.1598 35.2069 56.1005 35.515C55.7255 35.6244 55.453 35.8344 55.3698 36.2494C55.3223 36.4875 55.2255 36.7156 55.158 36.9506C54.8811 37.9275 54.6848 38.9231 54.2373 39.8537C53.1161 42.1881 51.8361 44.4344 50.5261 46.6644C50.3842 46.905 50.2348 47.1412 50.0561 47.4331C49.5961 46.4706 49.1055 45.6069 48.9567 44.5944C48.7886 43.4494 48.6561 42.3063 48.9411 41.17C49.153 40.3225 49.4298 39.4906 49.6848 38.6544C49.8055 38.2569 49.7498 38.0481 49.3898 37.8387C49.208 37.7331 49.0023 37.6394 48.7973 37.6087C47.6758 37.4379 46.5299 37.5317 45.4511 37.8825C45.1117 37.9925 44.9336 38.2119 44.8298 38.5619C44.5248 39.5944 44.2648 40.6519 43.8367 41.6337C42.103 45.6087 40.3192 49.5631 38.5373 53.5169C38.1655 54.3425 37.7298 55.1394 37.3105 55.9431C37.2042 56.1469 37.0492 56.3263 36.9167 56.5175C36.8105 56.3919 36.7692 56.3056 36.7698 56.2194C36.773 55.7112 36.7123 55.1881 36.8092 54.6969C37.1067 53.2111 37.4355 51.7318 37.7955 50.26C38.0892 49.0438 38.4311 47.8387 38.7567 46.6306C38.8661 46.2262 38.868 45.8481 38.5773 45.5081C38.0892 44.9388 37.0692 44.8138 36.4642 45.2525L36.1967 45.4038L36.2486 44.9725C36.3761 44.0481 36.4017 43.1269 36.148 42.2162C35.8317 41.0812 35.0217 40.4281 33.8442 40.4644C33.2955 40.4812 32.7192 40.575 32.2111 40.775C30.0742 41.6125 28.4311 43.0956 27.0323 44.88C26.9027 45.0457 26.742 45.1845 26.5592 45.2887C24.7511 46.2912 22.9373 47.2812 21.1242 48.275L19.1061 49.3806C18.5648 48.8644 18.073 48.3288 17.5148 47.8744C15.8105 46.4844 14.0786 45.1288 12.3623 43.7544C10.8411 42.5363 9.36734 41.2675 8.23984 39.6544C7.40109 38.4544 6.86047 37.1412 6.80859 35.6575C6.74297 33.7669 7.27922 32.0394 8.24172 30.4312C9.47297 28.3737 11.1523 26.7225 12.9986 25.2269C14.9517 23.6456 17.0642 22.3031 19.2536 21.0775C22.3167 19.3631 25.4673 17.8456 28.8455 16.8438C32.3092 15.8163 35.8236 15.2281 39.4486 15.6381C40.8736 15.7994 42.2573 16.1256 43.528 16.8225C44.5011 17.3556 45.2992 18.0538 45.6705 19.145C46.0367 20.2188 46.0255 21.3069 45.7717 22.3975C45.2561 24.6062 44.0467 26.4269 42.5248 28.0538C40.0286 30.7206 36.9836 32.5363 33.5555 33.7356C31.5844 34.4261 29.5336 34.8636 27.4523 35.0375C25.7467 35.1806 24.0767 35.0294 22.4617 34.4362C21.3923 34.0431 20.4611 33.4419 19.7123 32.5694C19.5786 32.4131 19.4073 32.2438 19.158 32.39C18.9136 32.5338 18.8705 32.7663 18.9523 33.0019C19.0892 33.3931 19.2155 33.8006 19.4286 34.1506C19.9642 35.0287 20.7455 35.6656 21.6055 36.2119C23.2573 37.2625 25.1036 37.6156 27.018 37.6975C29.923 37.8231 32.7573 37.3894 35.5517 36.61C39.5411 35.4975 43.0098 33.5325 45.7917 30.4325C48.108 27.8513 49.7623 24.9381 50.1167 21.4206C50.2898 19.7037 50.1055 18.0219 49.3017 16.4556C48.4298 14.7588 47.0436 13.4969 45.3861 12.6275C42.9723 11.3619 40.3673 10.625 37.6786 10.625H34.9848C31.7286 10.625 28.5805 11.5581 25.5205 12.6713C23.2042 13.5144 20.933 14.5094 18.728 15.6106C13.9261 18.01 9.45422 20.9031 5.78109 24.8813C3.95109 26.8631 2.40172 29.05 1.51047 31.625C1.24147 32.3938 1.00974 33.1751 0.816094 33.9663M18.2155 56.4744C18.0073 59.2612 16.7442 61.5206 14.6798 63.3506C13.5186 64.3794 12.1867 65.1119 10.6355 65.3694C10.073 65.4625 9.49734 65.485 8.95172 65.2519C8.17359 64.9194 7.99922 64.2287 7.98422 63.4931C7.96109 62.3206 8.37172 61.2606 8.93484 60.2519C9.66984 58.9369 10.7473 57.9344 11.898 56.9981C13.7105 55.5225 15.6767 54.2738 17.6905 53.095L17.8423 53.0325C18.1536 54.1825 18.3017 55.3181 18.2155 56.4744ZM33.9392 44.3625C33.7923 45.2525 33.6086 46.1431 33.3486 47.0056C32.4498 49.9912 31.2955 52.8844 30.0473 55.7388C29.8167 56.2669 29.4811 56.7487 29.1892 57.2494C29.1396 57.3263 29.0801 57.3965 29.0123 57.4581C28.6511 57.815 28.3086 57.7962 28.1261 57.3294C27.9136 56.7869 27.783 56.2062 27.6705 55.6319C27.5948 55.2463 27.613 54.8412 27.5892 54.4463C27.6136 51.6375 28.4705 49.085 29.9242 46.7088C30.5236 45.7288 31.1761 44.795 32.173 44.175C32.4831 43.9822 32.8186 43.8337 33.1698 43.7337C33.7011 43.5844 34.0273 43.83 33.9392 44.3625ZM44.6667 58.03L48.5223 53.5281C48.683 55.2 45.8411 58.5375 44.6667 58.03ZM56.9811 55.0006C56.7086 55.1569 56.4117 55.2694 56.1323 55.4137C55.8767 55.5463 55.7923 55.4125 55.7848 55.1925C55.7811 55.0402 55.8007 54.8882 55.843 54.7419C56.3636 52.9056 57.3217 51.3381 58.7473 50.0631L58.8473 50.0119C59.5255 51.9087 58.7417 53.9919 56.9811 55.0006Z" fill="#CB6699"/>
</svg>
