<svg width="80" height="80" viewBox="0 0 80 80" fill="none" xmlns="http://www.w3.org/2000/svg">
<path d="M78.9563 21.2875C78.9557 19.6438 78.7903 18.0044 78.4625 16.3937C78.1345 14.7449 77.577 13.1503 76.8063 11.6562C76.0008 10.2092 74.9997 8.87998 73.8313 7.70624C72.6262 6.52712 71.2264 5.56505 69.6938 4.86249C68.1812 4.09981 66.5634 3.56687 64.8938 3.28124C63.2375 2.96249 61.4188 2.96249 59.7625 2.80624H18.9062C17.6318 2.827 16.3602 2.93349 15.1 3.12499C13.8495 3.27221 12.6253 3.59192 11.4625 4.07499C11.1312 4.23124 10.6375 4.39374 10.3062 4.54999C9.2061 5.13972 8.16034 5.82573 7.18125 6.59999C6.85 6.91874 6.51875 7.07499 6.1875 7.38749C4.96941 8.5173 3.96205 9.8548 3.2125 11.3375C2.39396 12.8105 1.83377 14.4128 1.55625 16.075C1.30995 17.697 1.14516 19.3303 1.0625 20.9687V58.7125C1.06301 60.3562 1.22843 61.9956 1.55625 63.6062C1.88424 65.255 2.44175 66.8497 3.2125 68.3437C4.01799 69.7908 5.01908 71.12 6.1875 72.2937C7.3926 73.4729 8.79235 74.4349 10.325 75.1375C11.8375 75.9002 13.4553 76.4331 15.125 76.7187C16.7812 77.0375 18.6 77.0375 20.2562 77.1937H59.7687C61.4901 77.1925 63.2077 77.0335 64.9 76.7187C66.5697 76.4331 68.1875 75.9002 69.7 75.1375C71.1999 74.3785 72.5914 73.4221 73.8375 72.2937C75.0556 71.1639 76.063 69.8264 76.8125 68.3437C77.6311 66.8707 78.1912 65.2684 78.4688 63.6062C78.7151 61.9843 78.8799 60.351 78.9625 58.7125V21.2875H78.9563Z" fill="#F05138"/>
<path d="M53.1249 60.3125C46.1812 64.1437 36.6374 64.5375 27.0312 60.6062C19.5413 57.5672 13.1373 52.3478 8.6499 45.625C10.7354 47.2214 13.0137 48.5485 15.4312 49.575C25.3499 54.0125 35.2624 53.7062 42.2436 49.575C32.3062 42.2875 23.8687 32.8125 17.5812 25.075C16.3404 23.7674 15.2329 22.3395 14.2749 20.8125C21.8749 27.4437 33.9624 35.8125 38.2624 38.1812C32.1229 31.8905 26.4809 25.1327 21.3874 17.9687C29.8543 26.1968 39.1712 33.5023 49.1812 39.7625C49.6249 40 49.9687 40.2 50.2437 40.3875C50.5371 39.6712 50.7896 38.9387 50.9999 38.1937C53.3186 30.1375 50.6687 20.9812 44.8811 13.4C58.2812 21.1312 66.2499 35.6562 62.9124 47.8187C62.8249 48.15 62.7311 48.4437 62.6311 48.7875L62.7499 48.925C69.3687 56.8187 67.5499 65.175 66.7187 63.6125C63.1249 56.875 56.4812 58.9562 53.1249 60.3125Z" fill="#FEFEFE"/>
</svg>
