<svg width="80" height="80" viewBox="0 0 80 80" fill="none" xmlns="http://www.w3.org/2000/svg">
<path fill-rule="evenodd" clip-rule="evenodd" d="M27.0357 75.7706C27.0851 76.4069 27.0538 77.065 27.2226 77.6687C27.2944 77.9237 27.7851 78.0619 28.0857 78.2531L28.4763 78.5038C28.3294 78.5894 28.1832 78.7469 28.0344 78.7488C26.8683 78.7689 25.7019 78.7693 24.5357 78.75C24.3807 78.7475 24.2288 78.6019 24.0763 78.5225C24.2001 78.4331 24.3188 78.2781 24.4494 78.2675C25.2313 78.2019 25.4694 77.7269 25.4657 77.0244C25.4588 75.7331 25.4619 74.4406 25.4676 73.1481C25.4707 72.4281 25.2663 71.9025 24.4182 71.87C24.3007 71.865 24.1894 71.685 24.0757 71.5869C24.1894 71.5175 24.3044 71.3863 24.4169 71.3881C25.9107 71.4063 27.4107 71.3731 28.8963 71.4988C30.0669 71.5981 30.8382 72.4081 30.9176 73.3419C31.0038 74.3663 30.4782 75.0694 29.2894 75.5206L28.8338 75.6906C29.5994 76.4144 30.2776 77.1219 31.0313 77.7356C31.3657 78.0088 31.8394 78.1713 32.2744 78.2463C33.1451 78.395 33.6176 78.0206 33.6413 77.1575C33.6794 75.7644 33.6613 74.3694 33.6482 72.9756C33.6419 72.3369 33.3676 71.915 32.6551 71.88C32.5207 71.8738 32.3926 71.7219 32.2619 71.6375C32.4113 71.55 32.5607 71.3875 32.7088 71.3881C34.2288 71.4006 35.7557 71.3538 37.2657 71.4888C39.8426 71.7175 41.2782 73.8619 40.5244 76.2313C40.0651 77.6763 38.9651 78.4931 37.5501 78.5894C35.0763 78.7581 32.5888 78.7238 30.1069 78.7413C29.9094 78.7425 29.6657 78.5281 29.5169 78.3519C28.9457 77.6738 28.4069 76.9688 27.8494 76.2794C27.6807 76.0706 27.4926 75.8788 27.3132 75.6788L27.0357 75.7706ZM35.2351 72.1025C35.2351 73.8431 35.2138 75.53 35.2576 77.215C35.2644 77.4738 35.5138 77.8644 35.7451 77.9569C36.6557 78.32 38.1276 77.7269 38.5388 76.8056C39.0894 75.5725 39.1563 74.2744 38.4119 73.1044C37.6776 71.95 36.4544 72.065 35.2351 72.1025ZM27.0969 74.9531C27.8857 74.9731 28.7551 75.1488 29.0919 74.2825C29.2807 73.7969 29.2382 73.0438 28.9776 72.6013C28.5819 71.9288 27.7863 72.0463 27.0963 72.1313L27.0969 74.9531Z" fill="#337BA2"/>
<path fill-rule="evenodd" clip-rule="evenodd" d="M60.4813 74.5937C61.0026 74.4812 61.5195 74.4975 61.8551 74.2581C62.137 74.0581 62.207 73.5606 62.4226 73.0794C62.547 73.3025 62.6638 73.4162 62.6663 73.5319C62.682 74.3944 62.6851 75.2575 62.6663 76.12C62.6632 76.255 62.5251 76.3869 62.4495 76.5206C62.3645 76.4494 62.2376 76.3956 62.2001 76.3044C61.742 75.1975 61.7445 75.1969 60.4232 75.315C60.6163 76.1787 59.9463 77.2831 60.9795 77.8512C61.5063 78.1406 62.3563 78.0831 62.9726 77.8937C63.4982 77.7337 63.8976 77.1619 64.3551 76.77V78.705C64.102 78.7275 63.9101 78.7587 63.717 78.7587C61.1288 78.7625 58.5407 78.7512 55.9532 78.7706C55.507 78.7744 55.2051 78.6619 54.9326 78.2875C54.397 77.5487 53.8082 76.8487 53.2295 76.1425C53.0845 75.9656 52.8957 75.825 52.5914 75.5412C52.5914 76.2625 52.5651 76.7794 52.5988 77.2925C52.6338 77.8287 52.892 78.1844 53.4851 78.2512C53.6595 78.2712 53.8157 78.4544 53.9801 78.5637C53.8107 78.6294 53.6426 78.75 53.4726 78.7531C52.3307 78.7694 51.1895 78.7687 50.0476 78.7537C49.8726 78.7512 49.6988 78.6456 49.5063 78.5819L49.6038 78.3925C51.0063 77.8262 51.0101 77.8262 51.0088 76.2C51.0079 75.1854 50.9998 74.1708 50.9845 73.1562C50.9738 72.4556 50.7838 71.9 49.9288 71.87C49.8057 71.8656 49.6888 71.6906 49.5682 71.5944C49.7095 71.5237 49.8513 71.3912 49.992 71.3925C51.4363 71.4062 52.8888 71.3587 54.3232 71.4925C55.8932 71.6387 56.8639 72.9481 56.2807 74.1531C55.962 74.8112 55.2257 75.2675 54.5776 75.9144C55.1926 76.4769 55.9007 77.2856 56.7595 77.8737C57.9726 78.705 58.802 78.2306 58.8326 76.7812C58.8582 75.5644 58.8282 74.3462 58.8232 73.1281C58.8207 72.4062 58.5976 71.8819 57.7501 71.87C57.6345 71.8681 57.5207 71.745 57.3839 71.6637C57.8245 71.3387 62.0707 71.2206 63.9138 71.4562L64.0326 73.465L63.8245 73.55C63.3957 73.1019 63.4488 72.1756 62.562 72.1725C61.8845 72.1694 61.207 72.0981 60.4795 72.0544C60.4813 72.9019 60.4813 73.6731 60.4813 74.5937ZM52.577 74.9475C54.2082 75.0131 54.8557 74.5706 54.817 73.47C54.7788 72.4087 54.0701 71.9806 52.577 72.1444V74.9475Z" fill="#515151"/>
<path fill-rule="evenodd" clip-rule="evenodd" d="M7.22189 75.4262C7.84439 73.5844 8.45877 71.7406 9.09877 69.905C9.18689 69.6525 9.40252 69.4444 9.55939 69.215C9.71439 69.4513 9.92627 69.6681 10.015 69.9275C10.5969 71.6269 11.1506 73.3344 11.7163 75.0394C11.7613 75.1763 11.8194 75.3081 11.9506 75.645C12.5306 73.8869 13.0675 72.3275 13.5531 70.7519C13.7219 70.2063 13.5025 69.8119 12.8675 69.7406C12.6581 69.7162 12.455 69.6344 12.2106 69.5694C12.6331 69.1012 15.9338 69.0669 16.4775 69.5019C16.33 69.5719 16.2125 69.6713 16.0913 69.6763C15.06 69.7163 14.5825 70.3619 14.2888 71.2519C13.5025 73.6331 12.7013 76.0087 11.9031 78.3862C11.82 78.6331 11.7156 78.8725 11.6206 79.115L11.3575 79.1337L9.12065 72.3706L6.85877 79.1131L6.63752 79.1269C6.52189 78.8762 6.38002 78.6331 6.29564 78.3725C5.56627 76.1344 4.84627 73.8931 4.12439 71.6531C3.81502 70.6912 3.50564 69.735 2.24189 69.6737C2.15939 69.67 2.08377 69.5306 2.00439 69.455C2.10314 69.3737 2.20189 69.2219 2.30189 69.2206C3.72189 69.2056 5.14314 69.2056 6.56314 69.2212C6.66189 69.2219 6.75877 69.3756 6.85689 69.4581C6.75127 69.5369 6.65752 69.6513 6.53939 69.6875C5.40189 70.0313 5.32002 70.1631 5.67814 71.2663C6.13002 72.6619 6.59564 74.0519 7.05564 75.445L7.22189 75.4262Z" fill="#3179A1"/>
<path fill-rule="evenodd" clip-rule="evenodd" d="M40.9277 69.5313C41.1021 69.3806 41.1996 69.2225 41.2946 69.2244C43.1427 69.2519 45.0059 69.1663 46.8346 69.3788C48.5646 69.5794 49.5227 71.2031 49.0009 72.7281C48.5334 74.0963 47.3802 74.5244 46.0759 74.6431C45.5252 74.6938 44.9659 74.6513 44.3109 74.6513C44.369 75.5594 44.3984 76.3888 44.4827 77.2125C44.5534 77.9088 45.0221 78.1875 45.6846 78.2438C45.834 78.2569 45.9702 78.4238 46.1121 78.52C45.9559 78.5988 45.8009 78.745 45.6434 78.7469C44.274 78.765 42.9034 78.7644 41.534 78.7481C41.3696 78.7463 41.2071 78.6113 41.044 78.5381C41.1802 78.435 41.314 78.2488 41.454 78.2431C42.3684 78.2081 42.7115 77.6406 42.7227 76.8463C42.7502 74.9206 42.7477 72.995 42.724 71.0694C42.714 70.2506 42.3184 69.7269 41.429 69.6906C41.2965 69.6856 41.1652 69.6094 40.9277 69.5313ZM44.3796 73.7225C46.0559 73.8963 46.694 73.7363 47.0977 72.9931C47.5027 72.2481 47.504 71.4688 47.0252 70.7644C46.3634 69.79 45.3509 70.0781 44.3796 70.0431V73.7225Z" fill="#4D4D4D"/>
<path fill-rule="evenodd" clip-rule="evenodd" d="M19.4226 79.0394C17.9251 78.9744 16.7051 78.5044 15.8014 77.385C14.5182 75.7963 14.7132 73.6388 16.2457 72.265C17.8989 70.7838 20.632 70.72 22.3289 72.1581C23.4776 73.1325 24.022 74.3663 23.6482 75.8788C23.2264 77.585 22.0226 78.4988 20.387 78.9138C20.0457 78.9994 19.6857 79.0069 19.4226 79.0394ZM22.2626 75.1338L22.1226 75.0419C22.0295 74.5988 21.9751 74.1425 21.8364 73.7138C21.4351 72.4819 20.5951 71.8731 19.3595 71.8706C18.1282 71.8681 17.3001 72.48 16.8976 73.725C16.5401 74.8319 16.5864 75.9288 17.137 76.9625C17.9589 78.505 20.1551 78.7944 21.2301 77.4225C21.7314 76.7831 21.9276 75.9038 22.2626 75.1338Z" fill="#3279A1"/>
<path fill-rule="evenodd" clip-rule="evenodd" d="M76.7173 71.4481L77.2754 70.9594V73.6944L77.1136 73.8163C76.9829 73.6319 76.8023 73.465 76.7292 73.2594C76.3598 72.225 75.5636 71.6638 74.6548 71.9363C74.3429 72.0294 73.9679 72.3419 73.8848 72.63C73.8167 72.865 74.0629 73.33 74.3042 73.4888C74.9342 73.9038 75.6361 74.2113 76.3129 74.5531C77.7854 75.2981 78.3117 76.3313 77.8136 77.5131C77.3079 78.7138 75.7742 79.335 74.3998 78.8713C74.0211 78.7425 73.6704 78.5313 73.3198 78.3644L72.7842 79.0681L72.5473 78.9956C72.5473 78.0725 72.5417 77.1494 72.5567 76.2263C72.5579 76.1369 72.6911 76.05 72.7629 75.9619C72.8754 76.0981 73.0429 76.2181 73.0923 76.3744C73.4192 77.4094 74.0486 78.0969 75.1704 78.2119C75.8098 78.2775 76.4348 78.1988 76.6567 77.47C76.8592 76.8031 76.3942 76.4269 75.8948 76.1425C75.3454 75.83 74.7648 75.5744 74.2023 75.2863C73.9554 75.1594 73.7036 75.0338 73.4817 74.8706C72.6961 74.2913 72.3861 73.4563 72.6186 72.6094C72.8261 71.8525 73.5704 71.2113 74.4917 71.1844C75.1736 71.165 75.8636 71.3406 76.7173 71.4481ZM66.5492 78.34C66.4454 78.5463 66.3879 78.7194 66.2811 78.8531C66.2167 78.9331 66.0586 79.0094 65.9748 78.9831C65.8954 78.9581 65.8111 78.7994 65.8092 78.6981C65.7961 77.8863 65.7961 77.0738 65.8098 76.2631C65.8111 76.1638 65.9211 76.0669 65.9811 75.9688C66.0961 76.0419 66.2598 76.0894 66.3167 76.195C66.4223 76.3913 66.4467 76.63 66.5392 76.835C66.9567 77.7613 67.8023 78.3406 68.7723 78.2C69.1779 78.1419 69.6786 77.8338 69.8798 77.4888C70.1511 77.0256 69.8261 76.5488 69.3711 76.2856C68.7592 75.9319 68.1254 75.6138 67.4904 75.3038C66.0548 74.6031 65.4492 73.4463 65.9636 72.3544C66.4748 71.2688 68.0448 70.8169 69.3567 71.3819C69.5167 71.4506 69.6686 71.5381 69.7942 71.6031L70.4679 71.0494C70.5386 71.2475 70.5836 71.3156 70.5842 71.3838C70.5892 72.1438 70.5873 72.9031 70.5873 73.6625L70.3892 73.795C70.2573 73.6263 70.0742 73.4769 70.0023 73.2863C69.6442 72.3288 69.0773 71.7981 68.2461 71.8994C67.8561 71.9463 67.3592 72.2144 67.1673 72.5356C66.8861 73.0075 67.2923 73.3863 67.7204 73.6163C68.3223 73.9406 68.9386 74.2363 69.5492 74.5431C71.0604 75.3013 71.5923 76.3544 71.0704 77.5581C70.5623 78.7306 68.9792 79.3375 67.6223 78.8563C67.2698 78.7319 66.9429 78.5313 66.5492 78.34Z" fill="#505050"/>
<path fill-rule="evenodd" clip-rule="evenodd" d="M40.7882 0.871875C24.0501 0.573125 10.0644 14.155 10.0601 30.625C10.0551 47.5688 23.3963 61.0869 40.1082 61.0619C56.6644 61.0375 70.0657 47.57 70.0657 30.9575C70.0651 14.615 56.7251 1.15625 40.7882 0.871875ZM40.0707 59.5513C24.2419 59.555 11.5119 46.7206 11.5126 30.7594C11.5132 15.2094 24.4407 2.33437 40.0588 2.32875C55.9538 2.32375 68.6182 15.2375 68.6132 31.4456C68.6082 46.7475 55.6088 59.5481 40.0707 59.5513ZM55.3176 22.4594C54.6963 21.4356 53.9326 20.4425 53.5813 19.3263C53.1813 18.0562 52.8494 16.6106 53.0613 15.3375C53.4213 13.1788 55.0769 12.1069 57.3188 11.9019C45.0538 0.51875 25.7801 4.59313 18.6782 16.9613C21.4119 16.8344 24.0219 16.6687 26.6338 16.6337C27.1282 16.6269 27.9463 17.0444 28.0626 17.4319C28.3226 18.2975 27.5951 18.5994 26.8213 18.6588C26.0082 18.7225 25.1938 18.7831 24.2494 18.855L33.5838 46.6638C33.8082 46.2969 33.9007 46.1938 33.9413 46.0731C35.6676 40.9138 37.4038 35.7575 39.0863 30.5831C39.2401 30.1112 39.1638 29.4863 38.9951 29.0013C38.1051 26.4319 37.0388 23.9181 36.2582 21.3175C35.7238 19.5369 35.0157 18.385 32.9113 18.5912C32.5526 18.6262 32.1157 17.855 31.7138 17.4562C32.1994 17.1669 32.6813 16.6337 33.1713 16.6262C37.4569 16.5606 41.7433 16.5619 46.0288 16.63C46.5201 16.6381 47.0019 17.1856 47.4882 17.4825C47.0626 17.8713 46.6963 18.4538 46.1988 18.6038C45.4013 18.8444 44.5169 18.7987 43.5626 18.8838L52.9082 46.6862C54.3244 41.9837 55.6419 37.665 56.9219 33.3363C58.0657 29.4725 57.3844 25.8631 55.3176 22.4594ZM32.9494 55.0931C32.8919 55.26 32.8888 55.445 32.8444 55.7225C38.1307 57.1875 43.3132 57.0819 48.6194 55.2944L40.5144 33.0944C37.9201 40.6344 35.4326 47.8631 32.9494 55.0931ZM28.8651 54.0894L16.6538 20.5919C11.1451 31.3525 15.3357 47.7706 28.8651 54.0894ZM62.8976 19.4625C62.7288 21.3337 62.8463 23.4169 62.3094 25.3138C61.0451 29.7838 59.4994 34.1769 58.0113 38.5819C56.3938 43.3694 54.7113 48.1356 53.0569 52.9113C60.8301 48.3037 65.1013 41.5031 65.7813 32.5644C66.1688 27.4769 64.4138 20.4319 62.8976 19.4625Z" fill="#494949"/>
</svg>
